<?xml version="1.0" encoding="utf-8"?>
<!-- Generator: Adobe Illustrator 16.0.0, SVG Export Plug-In . SVG Version: 6.00 Build 0)  -->
<!DOCTYPE svg PUBLIC "-//W3C//DTD SVG 1.1//EN" "http://www.w3.org/Graphics/SVG/1.1/DTD/svg11.dtd">
<svg version="1.1" id="Capa_1" xmlns="http://www.w3.org/2000/svg" xmlns:xlink="http://www.w3.org/1999/xlink" x="0px" y="0px"
	 width="600px" height="228.5px" viewBox="0 0 600 228.5" enable-background="new 0 0 600 228.5" xml:space="preserve">
<g id="mapa">
	<g id="isla_cabrera">
	</g>
	<g id="menorca">
	</g>
	<g id="ibiza">
	</g>
	<g id="formentera">
	</g>
	<g id="mallorca">
	</g>
</g>
<g>
	<path fill="#60BF22" stroke="#000000" stroke-width="0.25" stroke-miterlimit="10" d="M354.133,33.376
		c0.295-0.158,0.184-0.416-0.382-0.67c-0.144-0.043-0.233-0.086,0.075-0.145c0.134-0.143,0.146-0.584,0.068-0.789
		c-0.097-0.08-0.348-0.123-0.111-0.455c0.104-0.295-0.044-0.345-0.461-0.049c-0.183,0.109-0.251,0-0.251,0
		c-0.396-0.186-0.182-0.451-0.165-0.373c0.021,0.077,0.19,0.127,0.19,0.127c2.146-0.648,0.676-2.119-1.979-1.193
		c-0.13,0.232-0.547-0.014-0.699,0.182c-0.603,0.037-0.302-0.264-0.479-0.742c-0.301-0.678-0.688-1.443-0.118-2.646
		c0,0,0.634-0.664,0.704-1.011c0.472-0.102,0.502,0.119,0.658-0.243c0.086-0.226,0.062-0.304-0.113-0.479
		c-0.188-0.043,0.021-0.27,0.089-0.069c0.521,0.035,0.743-0.164,0.437-0.383l-0.688-0.718c0,0,0.414-0.694,0.563-0.573
		c0.676,0.504,0.668,0.347,0.711,0.121c0.078-0.305,0.043-0.449,0.172-0.564c0,0-0.033-0.284-0.153-0.154
		c0,0-0.179-0.021-0.165-0.203c-0.663-0.611-0.532-1.354-0.873-1.496c-0.271-0.586-0.604-0.341-0.56-0.99c0,0,0.376-0.479,0.13-0.78
		c-0.145-0.298,0.104-0.507,0.338-0.263c0.17,0.396,0.288,0.381,0.495,0.42c0.271,0.104,0.184,0.584,0.521,0.507
		c0.738-0.104,0.361,0.741,0.795,0.833c0.585,0.223,0.339,1.626,0.529,1.732c0.116,0.075,0.155,0.662-0.073,0.856
		c-0.02,0.429,0.073,0.455,0.073,0.455c0.024,0.222,0.664,0.09,0.585,0.846c0.079,0.091,0.812,1.039,0.292,1.196
		c-0.421,0.898,0.945-0.221,1.222,0.078c0.187,0.324,0.078,0.353,0.208,0.445c0.021,0.25-0.089,0.282-0.116,0.338
		c0,0.297,0.221,0.53,0.261,0.569c0.039,0.039,0,0.039,0,0.039s0.287,0,0.301,0.078c0.741-0.924,2.854,1.082,2.237-1.024
		c-1.262-1.02,0.208-1.369-0.222-1.425c-0.364,0.146-0.812-1.493-1.522-1.192c-0.271,0.222-0.425,0.062-0.662-0.015
		c-0.417,0.129-0.534-0.3-0.184-0.403c0.429-0.181,0.091-0.338,0.079-0.521c-0.067-0.603-0.913-0.401-0.757-0.771
		c0.568-0.401,0.809-0.688,0.946-0.885c0.521,0.363,0.644,0.572,0.967,0.248c0.065-0.227,0.399-0.273,0.399-0.273
		c0.286-0.549,0.562,0.184,0.924,0.3c0.168,0.024,0.302,0.091,0.142,0.34c-0.062,0.401,0.721,0.376,0.771,0.717
		c-0.114,0.439,1.077,0.909,0.848,1.286c0.021,0.675,0.078,1.457,0.361,1.157c0.439-0.609,0.585-0.402,0.938-0.573
		c0.769-0.413,0.806,0.171,1.125,0.248c0.295,0.066,0.58,0.602,0.723,0.21c0.172-0.769,0.771-0.964,0.417-1.313
		c-1.23-0.977-0.608-0.977-0.22-1.547c0.646-0.641,0.181-0.821-0.225-0.73c-0.283,0.066-0.104-0.258-0.4-0.206
		c-0.396-0.235-0.014-0.548,0.09-0.808c0.301-0.469-0.688-0.586-0.779-1.321c-0.36-0.606,0.363-0.618,0.018-1.062
		c-0.188-0.679,1.354-0.494,1.354-0.886c0.08-0.062,0.117-0.262,0.117-0.401c0.472,0.263,0.487,0.408,0.64,0.36
		c0.227-0.142,0.493,0.42,0.681,0.341c0,0,0.145,0.454,0.337,0.155c0.247-0.248,0.302,0.013,0.354,0.116
		c0.323,0.287,0.584-0.23,1.09,0.015c0.306,0.156,0.306-0.261,0.226-0.312c-0.167-0.223,0.08-0.271,0.23-0.196
		c0.146,0.255,0.238,0.615,0.314,0.834c0.438,0.493,0.91,0.339,1.405,0.677c0.389-0.104,0.35-0.013,0.504,0.025
		c0.155,0.064,0.188-0.086,0.233-0.165c0.162-0.312,0.361-0.26,0.393-0.286c0.079,0.131,0.146,1.077,0.613,1.066
		c0.472-0.008,0.526,0.011,0.526,0.011c-0.138,0.19-0.854,1.292,0.21,1.403c0.426,0.078,0.854-0.017,0.854-0.017
		c0.238-0.243,1.188-0.186,1.259-0.155c0.085,0.389,0.061,0.459,0,0.483c-0.816,0.644-0.886,0.886-0.886,0.963
		c-0.418,0-1.101,0.493-0.834,0.754c0.556,0.56-0.868,1.13-0.431,1.382c0.078,0.764-0.555,1.459-0.562,1.482
		c-0.479-0.252-0.79-0.209-0.945-0.053c-0.156,0.035-0.104-0.406-0.099-0.527c-0.45-0.105,0.109-1.174-0.559-1.131
		c-0.501,0.729-0.438,0.122-0.643,0.236c-0.191,0.006-0.062,0.32-0.062,0.32c0.104,0.319-0.066,0.258-0.175,0.207
		c-0.383-0.01-0.393,0.287-0.462,0.436c-0.466,0.104-0.548,0.068-0.675,0.287c-0.479-0.256-0.372-0.244-0.693-0.207
		c0.025,0.371-0.877,0.596-0.614,1.3c-0.097,0.356-0.275,0.608-0.187,0.711c0.219,0.217,0,0.26-0.008,0.392
		c-0.186,1.354,1.7,0.504,2.073,1.051c0.104,0.476,0.053,0.604,0.053,0.604s-0.278-0.104-0.271,0.276
		c-0.119,0.582-0.996,0.617-0.569,0.869c0.569,0.295-0.233,0.634-0.2,0.797c0.219,0.636-1.146,0.132-1.542,0.328
		c-0.505,0.479-0.104,1.425-0.529,1.955c0.141,0.979,1.899,2.004,1.765,2.265c-0.187,0.381-0.688-0.113-0.812,0.33
		c-0.167,0.354-0.167,0.354-0.113,0.434c-0.536,0.033-0.612,0.259-0.686,0.226c-0.146-0.276,0.077-0.459,0.095-0.633
		c0.009-0.679-0.502-0.418-0.492-0.156c-0.453,0.183-0.394-0.092-0.723,0.298c-0.688,0.422-0.91-0.608-1.212,0
		c-0.055,0.588-0.357,0.161-0.75,0.075c-0.675,0.449-0.752-1.129-1.213-0.461c-0.329-0.392-0.58-0.207-0.735-0.032l-0.07-0.046
		c-0.808,0-0.36-0.161-0.404-0.528c-0.111-0.347-0.768,0.008-0.931-0.269c-0.184-0.226-0.688,0.614-0.964,0.33
		c-0.539,0.138-0.942-0.485-0.646-0.938c0.146-0.379-0.505-0.138-0.485-0.642c-0.408-0.177-0.549,0.104-0.591,0.252
		c0.008,0.252,0.042,0.537-0.365,0.365c-0.329-0.078-0.685-0.695-0.864-0.427c-0.687,0.652-1.479,0.972-1.445,1.281
		c0.032,0.071-0.146,0.353-0.4,0.125c-0.188-0.099-0.961-0.41-0.893-0.888C352.907,33.558,354.133,33.376,354.133,33.376z"/>
	<path fill="#60BF22" stroke="#000000" stroke-width="0.25" stroke-miterlimit="10" d="M367.913,29.601"/>
	<path fill="#60BF22" stroke="#000000" stroke-width="0.25" stroke-miterlimit="10" d="M366.481,35.919
		c-0.257,0.02,0.259,0.389,0.079,0.545c-0.246,0.254,0.248,0.381,0.403,0.139C367.278,36.55,367.521,35.831,366.481,35.919z"/>
	
		<ellipse transform="matrix(-0.8719 -0.4896 0.4896 -0.8719 644.5903 234.1244)" fill="#60BF22" stroke="#000000" stroke-width="0.25" stroke-miterlimit="10" cx="352.915" cy="32.76" rx="0.259" ry="0.3"/>
	<path fill="#60BF22" stroke="#000000" stroke-width="0.25" stroke-miterlimit="10" d="M373.994,14.881
		c1.012,1.425-0.917,1.56-1.353,0.278c0.088-0.288,0.188-0.158,0.379-0.504c-0.05-0.418,0.559-0.142,0.731-0.142
		c0.326,0.034,0.468-0.091,0.468-0.091S374.327,14.724,373.994,14.881z"/>
</g>
<g>
	<path fill="#1D1D1B" d="M302.385,30.048c-0.372,0.189-1.117,0.375-2.069,0.375c-2.209,0-3.871-1.396-3.871-3.965
		c0-2.455,1.662-4.115,4.094-4.115c0.979,0,1.597,0.207,1.858,0.348l-0.244,0.826c-0.385-0.188-0.93-0.326-1.58-0.326
		c-1.837,0-3.059,1.176-3.059,3.23c0,1.918,1.104,3.152,3.012,3.152c0.615,0,1.242-0.129,1.651-0.328L302.385,30.048z"/>
	<path fill="#1D1D1B" d="M304.963,27.839l-0.814,2.467h-1.046l2.661-7.838h1.222l2.673,7.838h-1.079l-0.839-2.467H304.963z
		 M307.531,27.05l-0.768-2.258c-0.177-0.51-0.29-0.973-0.408-1.428h-0.021c-0.114,0.465-0.244,0.938-0.396,1.416l-0.767,2.27
		H307.531z"/>
	<path fill="#1D1D1B" d="M310.808,22.573c0.438-0.094,1.138-0.164,1.849-0.164c1.017,0,1.662,0.178,2.149,0.57
		c0.406,0.303,0.647,0.768,0.647,1.385c0,0.756-0.499,1.416-1.323,1.721v0.021c0.74,0.188,1.612,0.803,1.612,1.967
		c0,0.674-0.27,1.184-0.657,1.569c-0.551,0.498-1.435,0.729-2.71,0.729c-0.697,0-1.23-0.045-1.567-0.092V22.573L310.808,22.573z
		 M311.818,25.78h0.92c1.068,0,1.695-0.558,1.695-1.312c0-0.92-0.697-1.277-1.722-1.277c-0.468,0-0.729,0.033-0.896,0.068
		L311.818,25.78L311.818,25.78z M311.818,29.54c0.197,0.033,0.487,0.045,0.849,0.045c1.052,0,2.018-0.385,2.018-1.523
		c0-1.068-0.919-1.512-2.022-1.512h-0.838L311.818,29.54L311.818,29.54z"/>
	<path fill="#1D1D1B" d="M317.104,22.573c0.514-0.105,1.245-0.164,1.941-0.164c1.081,0,1.773,0.199,2.27,0.641
		c0.396,0.35,0.615,0.885,0.615,1.488c0,1.033-0.65,1.721-1.479,2v0.035c0.604,0.211,0.965,0.768,1.149,1.58
		c0.258,1.092,0.438,1.85,0.604,2.151h-1.046c-0.131-0.222-0.304-0.894-0.521-1.873c-0.229-1.082-0.65-1.487-1.568-1.522h-0.954
		v3.396h-1.013L317.104,22.573L317.104,22.573z M318.115,26.144h1.037c1.079,0,1.77-0.592,1.77-1.49c0-1.01-0.731-1.451-1.806-1.463
		c-0.484,0-0.837,0.045-1.001,0.094V26.144L318.115,26.144z"/>
	<path fill="#1D1D1B" d="M327.411,26.632h-3.048v2.824h3.396v0.85h-4.405v-7.838h4.229v0.848h-3.225v2.479h3.048L327.411,26.632
		L327.411,26.632z"/>
	<path fill="#1D1D1B" d="M329.072,22.573c0.519-0.105,1.245-0.164,1.943-0.164c1.08,0,1.772,0.199,2.267,0.641
		c0.396,0.35,0.616,0.885,0.616,1.488c0,1.033-0.65,1.721-1.478,2v0.035c0.604,0.211,0.966,0.768,1.146,1.58
		c0.257,1.092,0.441,1.85,0.604,2.151h-1.047c-0.132-0.222-0.306-0.894-0.521-1.873c-0.23-1.082-0.649-1.487-1.569-1.522h-0.952
		v3.396h-1.014L329.072,22.573L329.072,22.573z M330.084,26.144h1.031c1.081,0,1.771-0.592,1.771-1.49
		c0-1.01-0.733-1.451-1.803-1.463c-0.488,0-0.841,0.045-1,0.094V26.144L330.084,26.144z"/>
	<path fill="#1D1D1B" d="M336.651,27.839l-0.812,2.467h-1.046l2.657-7.838h1.227l2.674,7.838h-1.081l-0.836-2.467H336.651z
		 M339.221,27.05l-0.771-2.258c-0.176-0.51-0.291-0.973-0.404-1.428h-0.021c-0.116,0.465-0.243,0.938-0.396,1.416l-0.771,2.27
		H339.221z"/>
</g>
</svg>
