<?xml version="1.0" encoding="utf-8"?>
<!-- Generator: Adobe Illustrator 16.0.0, SVG Export Plug-In . SVG Version: 6.00 Build 0)  -->
<!DOCTYPE svg PUBLIC "-//W3C//DTD SVG 1.1//EN" "http://www.w3.org/Graphics/SVG/1.1/DTD/svg11.dtd">
<svg version="1.1" id="Capa_1" xmlns="http://www.w3.org/2000/svg" xmlns:xlink="http://www.w3.org/1999/xlink" x="0px" y="0px"
	 width="600px" height="200px" viewBox="0 0 600 200" enable-background="new 0 0 600 200" xml:space="preserve">
<g id="mapa">
	<g id="isla_cabrera">
	</g>
	<g id="menorca">
	</g>
	<g id="ibiza">
	</g>
	<g id="formentera">
	</g>
	<g id="mallorca">
	</g>
</g>
<g>
	<path fill="#F7844B" stroke="#000000" stroke-width="0.25" stroke-miterlimit="10" d="M41.147,78.029
		c-0.386,0.707,0.188,0.834,0.646,0.947c1.589,1.625,0.147,3.668-0.115,4.234c-0.377,1.553-1.36,0.529-1.739,1.322
		c0.757,2.986-0.718,2.951-1.589,5.521c-0.339,1.324,0.834,1.928,1.174,3.215c0.075,0.869,1.438,0.344,1.102,1.363
		c0.146,0.945-0.271,0.529-0.308,1.018c0.492,0.799-0.681,0.344-0.188,1.137c1.248,0.797,0.752,1.361,0.546,1.775
		c-0.32,0.646,0.396,0.27,0.816,0c0.604-0.377,1.318,0.334,1.475,0.357c0.528,0.516,0.642-0.43,1.209,1.082
		c0.304,0.756,0.417,0.342,0.72,1.891c-0.103,0.736,0.794,1.627,1.173,0.984c0.685-0.605,1.323-0.719,1.285-1.248
		c-0.074-0.908,1.59-2.193,2.043-3.896c1.288-1.965,1.814-0.148,2.648-0.49c1.135-0.074,0.941,0.795,0.941,0.795
		c0.943-1.021,1.139-0.148,1.664-0.229c2.156-0.756,2.117,1.777,2.534,1.59c1.286,0.945-1.358,1.21-0.907,1.814
		c0.76,1.211,1.398-0.113,1.895,0.076c1.211-0.039,0.604-2.951,2.988-0.266c0.563,1.248-1.438,2.258,0.265,2.076
		c0.832-0.486,0.151-1.771,1.248-2.113c0.632-0.002-0.229-1.289,0.87-0.834c0.832,0.567,0.757,0.342,0.98-0.301
		c0.684-1.477,2.949,0.037,4.236,1.249c2.873,2.946,1.891,4.084,2.344,4.233c1.556,1.062,0.27,3.062,0.493,3.33
		c-0.02,0.594,0.604,0.073,0.604,0.83c0,0.565,0.644,0.038,0.719-0.267c0.227-0.834,0.947-0.113,1.136-0.604
		c0.292-0.312,0.339-2.459,1.739-1.854c1.438,0.94,2.764,2.229,2.764,2.229c0.604,0.756,0.867-0.152,0.564-0.606
		c-2.373-1.908-3.024-2.058-3.44-2.836c-0.945-2.912-4.049-1.173-4.162-1.931c-0.644-1.476-1.324-0.756-1.552-1.59
		c-0.111-1.207,0.478-1.017,1.97-1.814c2.154-1.135,2.911,0.076,3.591-0.83c0.568-0.455,3.221-3.441,3.104-1.701
		c-1.292,1.07-3.365,1.475-3.214,3.402c0.232,1.136-0.757,1.397-0.151,2.42c0.946,1.896,2.496,2.08,3.144,2.312
		c0.905-0.704,0.642-2.461,1.396-3.745c0.756-1.664-0.758-2.801-0.794-4.049c0.566-4.807,3.214-5.334,3.403-6.24
		c0.454-0.189-0.189-2.346,2.646-1.135c1.101,0.644,2.532-1.1,1.478-2.27c-1.553-1.365,0.721-1.592,1.665-0.605
		c1.589,1.172,0.942,2.949,1.813,2.723c0.906-0.074,0.414-1.891,0-2.344c-1.062-1.363,0.906-1.666,1.438-1.1
		c0.416,0.947,0.487,0.645,1.968,0.83c0.719,0.344,1.396-0.756,1.74-1.096c0.604-0.604,1.589-1.436,1.589-1.816
		c0.449-0.285,0.832-1.473,2.382-1.773c0.984,0.148,0.303-1.021,1.097-0.834c0.945,1.098,0.907-0.832,1.664-2.535
		c-0.228-1.396,1.021-1.057,1.4-0.865c0.93,0.752,2.043,0.377,2.384,0.033c0.379-0.717-0.455-0.941-0.341-1.396
		c0.08-0.447-2.231-0.717-0.152-0.945c2.004,0.152,0.478-1.035,0.591-1.602c0.927-0.215,0.621-1.389,0.657-2.598
		c-0.452-3.935,2.534-4.463,3.143-4.844c0.758-0.263,0.149-1.245,1.932-0.868c0.907,0.189,0.719-0.72,4.123,0.265
		c1.322,0.417,0.603-1.249,1.171-1.512c0.379-1.402-1.286-1.666,0.188-2.081c1.213-1.06-0.15-4.048,1.662-3.406
		c2.009,0.795,0.229-2.229,1.595-2.27c1.696,0.492,1.661-2.534,2.834-0.943c1.099,1.701,2.308-0.304,2.308-0.304
		c-1.248,0.038-1.284-0.379-0.528-1.398c1.479-1.589-2.947,0.303-2.606-1.74c1.396-2.156-0.686-0.871-0.721-2.193
		c-1.136-1.78-1.699-0.91-2.875-3.217c-1.21-4.501,2.229-3.821,2.838-4.273c2.347-0.756,0.417-1.099,0.643-1.704
		c0.077-1.132-2.457,0.569-1.058-1.358c1.319-1.552,0.563-0.605-0.037-1.137c-0.229-1.171-1.705-0.643-1.324-1.663
		c0.226-0.984-0.907,0.567-2.534-0.266c-0.564-0.908-1.59,0.605-2.118-0.304c-0.682-1.475-2.876,3.369-3.518,0.304
		c0.173-0.622-0.415-0.152-1.211-1.249c-0.655-1.252-1.55-1.021-2.194-1.475c-1.247-0.263,0.833-2.685-0.036-2.648
		c-1.099-0.036-2.042-0.302-2.646,0c-0.529,1.289-3.251-1.172-2.8,0.643c1.21,2.802-0.983-0.604-1.554,0.229
		c-0.45,2.043-3.361,5.333-3.062,1.475c0.148-1.552-1.587-1.098-1.587,0.34c-0.305,3.519-0.872-0.794-2.535,0.454
		c-0.453,2.194-1.817,0.342-1.968,0.945c-0.908,0.866-2.04,1.006-2.765,1.663c-0.899,0.698,1.74,1.705-1.396,1.705
		c-0.795-0.04-0.38,2.646-1.326,1.662c-0.98-0.642,1.211-1.512,0.152-1.662c-0.832-0.38-0.452,1.323-0.946,0.075
		c-0.34-0.529-0.719,0.075-1.096-0.568c-0.307-1.137-2.082-0.113-2.118,0.871c0.34,0.832-0.629,0.905-0.617,2.005
		c0.692,1.245-1.162-0.041-1.502,0.642c-0.795,1.285-1.021,0.038-1.626,0.038c-1.021,0.529-0.907-1.21-1.211-1.021
		c-0.646,0.148-2.005,0.604-2.194,0.944c0.076,1.022-1.512,1.286-1.286,2.004c0.346,2.459-3.253,2.953-3.215-0.455
		c0.416-2.229-2.041-0.526-2.308,0.985c-0.944,1.929-2.457-0.567-2.271,0.38c0.983,4.801-1.812,2.723-2.383,3.025
		c-0.644,0.035-1.327,0.488-1.478,0.87c-0.188,1.172-0.377,1.512-1.625,1.74c-0.724,0.908-1.627,0.15-1.896,0.415
		c-0.794,0.188-1.356,2.949-3.253,3.291c-0.587,0.016-1.06,1.323-0.379,2.193c0.568,1.021,0.946,1.061-0.035,1.968
		c-0.493,0.529,0.684,0.643,0.487,1.098c-0.073,0.717,1.326,0.339,0.191,1.36c-1.151,1.472-2.727,2.043-2.61,2.458
		c0.565,0.567,0.304,1.475,0.757,1.438c0.756,0.567-0.681,0.947,0.871,1.174c2.155,0.717,0.036,2.079,1.021,2.345
		c1.604,0.504,2.155-0.04,2.271,1.172c-1.097,3.63-2.798,1.098-3.405,1.212c-1.096,0-2.381-0.569-2.567,0
		c-0.567,0.868-2.462,0.375-2.423,0.831c-0.565,1.932-1.099-1.549-1.438-0.114c-0.038,0.722-2.118,0-2.081,0.308
		c-0.075,0.756-1.135,0.149-1.097,0.338c-0.114,0.531-1.815-0.264-0.567-1.021c1.135-0.833-1.021-0.795-1.248-0.075
		c-0.49,1.738-1.362-1.854-1.666-0.667c-0.265,2.251-1.965,2.748-1.929,2.972C39.72,74.695,38.13,74.617,39,75.49
		c0.832,0.604,0.304,1.477,1.097,1.438C41.185,76.746,41.374,77.613,41.147,78.029z"/>
	<path fill="#F7844B" stroke="#000000" stroke-width="0.25" stroke-miterlimit="10" d="M33.203,74.891
		c-0.27,0.607,0.072,0.49,0.303,0.379c0.979-0.418,1.475,0.645,1.969-0.145c0.263-1.408-0.666-0.463-1.185-0.537
		C33.549,74.434,33.203,74.891,33.203,74.891z"/>
	<path fill="#F7844B" stroke="#000000" stroke-width="0.25" stroke-miterlimit="10" d="M38.688,71.447c0.113-0.943,0.456,0,0.492,0
		c1.248,0.305,0.188,1.967-0.246,1.1C38.537,72.053,38.688,71.447,38.688,71.447z"/>
	<path fill="#F7844B" stroke="#000000" stroke-width="0.25" stroke-miterlimit="10" d="M38.839,68.271
		c1.212-0.227,0.151,2.421-0.794,1.25c-0.568-0.646-1.663-1.514-0.87-1.855c0.757-0.528-0.831-1.665,0.569-2.042
		c0.486-1.475,1.512-0.492,1.246,0C39.144,67.515,37.024,67.588,38.839,68.271z"/>
	<path fill="#F7844B" stroke="#000000" stroke-width="0.25" stroke-miterlimit="10" d="M37.44,99.932
		c0.646-0.188,0.946,1.061,1.324,0c0.341-0.684-0.871-1.021-1.136-0.758C36.57,99.781,37.44,99.932,37.44,99.932z"/>
	<path fill="#F7844B" stroke="#000000" stroke-width="0.25" stroke-miterlimit="10" d="M34.981,98.721
		c-0.487,1.135-2.15,1.551-1.812,2.232c1.171,0.529,1.21-0.455,2.117-0.266c1.172,0.303,0.681-0.832,0.979-0.963
		C36.609,98.91,35.169,98.039,34.981,98.721z"/>
	<path fill="#F7844B" stroke="#000000" stroke-width="0.25" stroke-miterlimit="10" d="M129.733,55.373
		c0.5-0.209,0.944,0.793,1.625,0c0.229-1.02-1.246-0.907-1.02-1.853c-0.038-0.566-0.492,0.529-1.362-0.529
		c-1.287,0.111,0.38,1.064,0.189,1.344C128.824,54.579,128.902,55.22,129.733,55.373z"/>
</g>
<g>
	<path fill="#1D1D1B" d="M35.123,21.402h-3.046v2.826h3.396v0.848h-4.406v-7.834h4.23v0.848h-3.22v2.477h3.046V21.402z"/>
	<path fill="#1D1D1B" d="M37.794,17.242v7.834H36.78v-7.834H37.794z"/>
	<path fill="#1D1D1B" d="M41.281,25.076l-2.557-7.834h1.092L41.04,21.1c0.338,1.058,0.628,2.012,0.838,2.929h0.021
		c0.226-0.905,0.549-1.895,0.896-2.917l1.325-3.87h1.076l-2.8,7.834H41.281z"/>
	<path fill="#1D1D1B" d="M47.057,17.242v7.834h-1.013v-7.834H47.057z"/>
	<path fill="#1D1D1B" d="M48.682,23.843c0.452,0.277,1.116,0.512,1.815,0.512c1.029,0,1.638-0.547,1.638-1.337
		c0-0.732-0.42-1.151-1.477-1.559c-1.279-0.453-2.07-1.116-2.07-2.219c0-1.223,1.012-2.128,2.535-2.128
		c0.803,0,1.384,0.185,1.729,0.382l-0.276,0.827c-0.258-0.141-0.778-0.372-1.487-0.372c-1.069,0-1.479,0.638-1.479,1.173
		c0,0.731,0.479,1.094,1.562,1.512c1.324,0.512,1.999,1.15,1.999,2.302c0,1.211-0.896,2.255-2.744,2.255
		c-0.755,0-1.58-0.219-1.999-0.499L48.682,23.843z"/>
	<path fill="#1D1D1B" d="M54.41,23.843c0.448,0.277,1.113,0.512,1.812,0.512c1.034,0,1.64-0.547,1.64-1.337
		c0-0.732-0.419-1.151-1.477-1.559c-1.278-0.453-2.07-1.116-2.07-2.219c0-1.223,1.016-2.128,2.536-2.128
		c0.802,0,1.383,0.185,1.73,0.382l-0.277,0.827c-0.257-0.141-0.779-0.372-1.488-0.372c-1.067,0-1.478,0.638-1.478,1.173
		c0,0.731,0.477,1.094,1.558,1.512c1.326,0.512,2.001,1.15,2.001,2.302c0,1.211-0.896,2.255-2.745,2.255
		c-0.755,0-1.581-0.219-1.998-0.499L54.41,23.843z"/>
	<path fill="#1D1D1B" d="M61.545,22.611l-0.812,2.465h-1.047l2.663-7.834h1.219l2.68,7.834h-1.082l-0.836-2.465H61.545z
		 M64.115,21.82l-0.77-2.254c-0.175-0.512-0.292-0.979-0.407-1.429h-0.021c-0.117,0.462-0.243,0.938-0.396,1.417l-0.769,2.266
		H64.115z"/>
</g>
</svg>
