<?xml version="1.0" encoding="utf-8"?>
<!-- Generator: Adobe Illustrator 16.0.0, SVG Export Plug-In . SVG Version: 6.00 Build 0)  -->
<!DOCTYPE svg PUBLIC "-//W3C//DTD SVG 1.1//EN" "http://www.w3.org/Graphics/SVG/1.1/DTD/svg11.dtd">
<svg version="1.1" id="Capa_1" xmlns="http://www.w3.org/2000/svg" xmlns:xlink="http://www.w3.org/1999/xlink" x="0px" y="0px"
	 width="600px" height="189.5px" viewBox="0 0 600 189.5" enable-background="new 0 0 600 189.5" xml:space="preserve">
<g id="mapa">
	<g id="isla_cabrera">
	</g>
	<g id="menorca">
	</g>
	<g id="ibiza">
	</g>
	<g id="formentera">
	</g>
	<g id="mallorca">
	</g>
</g>
<g>
	<path fill="#1D1D1B" d="M116.326,22.661h4.221v0.849h-3.209v2.606h2.966v0.834h-2.966v3.55h-1.012V22.661z"/>
	<path fill="#1D1D1B" d="M128.683,26.498c0,2.696-1.639,4.129-3.641,4.129c-2.069,0-3.521-1.604-3.521-3.978
		c0-2.488,1.545-4.115,3.643-4.115C127.298,22.534,128.683,24.174,128.683,26.498z M122.602,26.627c0,1.674,0.907,3.176,2.499,3.176
		c1.604,0,2.517-1.479,2.517-3.256c0-1.562-0.814-3.188-2.5-3.188C123.439,23.358,122.602,24.905,122.602,26.627z"/>
	<path fill="#1D1D1B" d="M129.991,22.766c0.512-0.104,1.242-0.161,1.938-0.161c1.08,0,1.779,0.198,2.271,0.639
		c0.396,0.353,0.613,0.886,0.613,1.488c0,1.034-0.648,1.724-1.479,2v0.036c0.604,0.207,0.965,0.769,1.148,1.58
		c0.259,1.093,0.44,1.849,0.604,2.152h-1.046c-0.129-0.226-0.307-0.896-0.521-1.873c-0.229-1.08-0.649-1.488-1.568-1.522h-0.951
		V30.5h-1.016L129.991,22.766L129.991,22.766z M131.004,26.338h1.035c1.081,0,1.766-0.597,1.766-1.492
		c0-1.01-0.729-1.451-1.802-1.463c-0.489,0-0.838,0.047-0.999,0.094V26.338L131.004,26.338z"/>
	<path fill="#1D1D1B" d="M142.848,27.055c-0.061-1.092-0.13-2.403-0.116-3.381H142.7c-0.271,0.918-0.598,1.896-0.988,2.978
		l-1.385,3.804h-0.771l-1.269-3.732c-0.371-1.104-0.688-2.116-0.906-3.047h-0.021c-0.021,0.979-0.081,2.289-0.149,3.465
		l-0.207,3.361h-0.966l0.548-7.838h1.289l1.338,3.791c0.325,0.963,0.593,1.825,0.79,2.639h0.036
		c0.193-0.791,0.475-1.651,0.822-2.639l1.396-3.791h1.29l0.487,7.838h-0.988L142.848,27.055z"/>
	<path fill="#1D1D1B" d="M149.642,26.823h-3.046v2.826h3.396V30.5h-4.406v-7.839h4.23v0.849h-3.225v2.479h3.046L149.642,26.823
		L149.642,26.823z"/>
	<path fill="#1D1D1B" d="M151.303,30.5v-7.839h1.104l2.511,3.966c0.58,0.92,1.034,1.743,1.406,2.545l0.021-0.011
		c-0.093-1.047-0.116-2.002-0.116-3.223v-3.277h0.951V30.5h-1.021l-2.489-3.979c-0.547-0.871-1.069-1.769-1.464-2.615l-0.036,0.013
		c0.062,0.987,0.082,1.932,0.082,3.231v3.35H151.303L151.303,30.5z"/>
	<path fill="#1D1D1B" d="M160.436,23.522h-2.383v-0.858h5.803v0.858h-2.396v6.979h-1.024V23.522z"/>
	<path fill="#1D1D1B" d="M168.781,26.823h-3.045v2.826h3.396V30.5h-4.406v-7.839h4.232v0.849h-3.224v2.479h3.045L168.781,26.823
		L168.781,26.823z"/>
	<path fill="#1D1D1B" d="M170.441,22.766c0.514-0.104,1.24-0.161,1.939-0.161c1.082,0,1.779,0.198,2.268,0.639
		c0.396,0.353,0.615,0.886,0.615,1.488c0,1.034-0.649,1.724-1.477,2v0.036c0.604,0.207,0.966,0.769,1.147,1.58
		c0.256,1.093,0.44,1.849,0.604,2.152h-1.047c-0.128-0.226-0.305-0.896-0.522-1.873c-0.231-1.08-0.649-1.488-1.569-1.522h-0.948
		V30.5h-1.015L170.441,22.766L170.441,22.766z M171.452,26.338h1.031c1.081,0,1.77-0.597,1.77-1.492c0-1.01-0.733-1.451-1.802-1.463
		c-0.487,0-0.841,0.047-0.999,0.094V26.338L171.452,26.338z"/>
	<path fill="#1D1D1B" d="M178.016,28.032l-0.812,2.468h-1.046l2.66-7.839h1.224l2.673,7.839h-1.08l-0.837-2.468H178.016z
		 M180.586,27.241l-0.771-2.256c-0.175-0.51-0.289-0.978-0.402-1.429h-0.024c-0.115,0.464-0.244,0.938-0.395,1.419l-0.771,2.266
		H180.586z"/>
</g>
<path fill="#D061D6" stroke="#000000" stroke-width="0.25" stroke-miterlimit="10" d="M82.055,26.149
	c0.294,0.312,0.12,0.346,0.068,0.575c0.22,1.709-0.146,2.632,0.098,2.632c0.754,0.06-0.107,2.11,1.618,5.051
	c0.499-0.153,0.154,1.843,2.058,2.283c0.899-0.287,0.479,0.479,0.271,0.346c-0.032,0.623,0.672,1.209,0.939,1.209
	c0.833,0.304,1.348,0.328,2.857-0.901c0.104-0.09,0.117,0.09,0,0.256c-0.703,1.218,0.461,1.701-0.013,2.367
	c-0.112,0.074,0.589,0.047,0.817,0.994c1.051,0.606,0.368,3.037,0.869,3.524c0.508,0.502,3.188,3.674,4.006,3.931
	c0.41-0.115,1.572,1.664,3.812,2.51c0.805,0.049,2.368,1.61,2.676,1.345c0.359,0.012,0.206,0.473,0.449,0.269
	c0.741-1.447,0.767-0.818,1.138-1.269c0.628-0.521,0.628-0.521,0.729-0.589c0.19-0.536,2.812-1.01,3.16-1.957
	c0.143-0.704,1.702-1.063,1.729-1.473c0,0,1.481-0.179,1.664,0.139c0.576,0.709,0.46,1.576,1.188,1.564
	c0.938,0.1,0.644,0.854,0.729,0.956c0.396,0.591,1.149,1.22,0.908,1.459c-0.049,0.203,0.309,0.335-0.076,0.578
	c-0.216,1.396,1.036,0.896,0.588,1.944c-0.308,0.896,0.562,1.462-0.072,1.638c-2.768,0.888-1.371,3.511-3.773,3.276
	c-1.037-0.241-1.998-0.729-2.396-0.396c-0.963,0.447-2.92-0.564-3.403-0.115c-3.313,0.279-3.673-0.92-4.021-0.883
	c-0.742-0.219-0.396-1.869-5.853-5.223c-0.129,0.104-5.271-3.508-8.778-2.934c-0.574,0.551-2.111-1.127-4.07,2.137
	c0.115,0.938-0.436,0.898-0.407,1.385c0.092,0.438-0.609,0.754-0.347,1.053c0.19,0.588-0.37,0.422-0.279,0.666
	c0.165,0.15-0.132,0.15-0.183,0.141c-0.46,0.055-0.444-0.053-0.77-0.053c-1.05,0.41-2.127,2.441-2.521,2.814
	c-0.27,0.104-1.688,2.561-2.608,2.584c-0.521,0.32-1.461,1.549-2.436,1.627c-0.104,0.18-0.438,0.197-0.521,0.078
	c-2.457-0.258-0.181-3.254-0.536-8.271c-0.47-0.679-0.021-0.8-0.517-1.308c-0.129-1.405-0.612-3.021-0.512-3.172
	c-0.153-1.332-0.438-2.101,0.743-1.923c1.354,0.438,0.816-4.528,0.103-5.604c-0.27-0.594-0.688-0.229-0.712-0.862
	c-0.572-0.56-0.633-0.979-0.072-1.135c1.188-0.459,0.822-1.093,1.268-1.132c0.939-0.903,0.886-1.347,1.307-1.401
	c0.192-0.25,0.425-0.459,0.211-0.806c-0.307-0.461,0.23-0.424,0.325-0.924c0.54,0.037,0.04,0.866,0.229,1.211
	c0.599,1.058,1.938,1.058,2.858,0.039c0.19-0.271,0.424,0.097,0.153,0.269c-1.312,0.444-1.862,1.959-0.442,2.42
	c0.364-0.248,0.614-0.097,0.674-0.076c2.636-0.385,0.886-0.887,1.021-2.516c0,0-0.539-0.498-0.748-0.289
	c-0.153,0.057-0.365-0.115-0.116-0.269c0.521-0.5,0.348-1.438,0.96-0.597c0,0-0.672-0.06-0.363,0.25c1,0.938,3.531-1.842,3.344-3.17
	c-0.48-1.556,1-1.42,0.011-2.455c0.738-0.651,0.738-0.651,0.76-1.537c-0.312-0.407,0-1.037,0-1.037
	c0.057-0.768-0.176-1.67-0.191-1.881C81.096,24.307,82.44,25.19,82.055,26.149"/>
<path fill="#FFFFFF" stroke="#000000" stroke-width="0.25" stroke-miterlimit="10" d="M81.043,34.778
	c0.331-0.306,0.702-0.496,0.943,0c0.389,1.349,2.09,1.308,1.74,2.151c-0.256,0.349-0.218,0.397,0.113,0.425
	c0.372,0.256,0.204,0.473,0.947,0.612c0.936,0.258,0.396,3.047-0.856,3.252c-2.366,0.347-1.534-0.729-2.146-1.022
	c-1.896-1.483-2.181-2.842-2.317-2.957c-0.13-0.142-0.449-0.485,0-1.178C80.16,35.602,81.043,34.778,81.043,34.778z"/>
<g>
	<path fill="#D061D6" stroke="#000000" stroke-width="0.25" stroke-miterlimit="10" d="M79.969,20.351
		c-0.285,0.078-0.209,0.27-0.133,0.346c-1.021,1.386-0.198,1.386-0.07,1.729c-0.25,0.156-0.046,0.44,0.07,0.25
		c0.385-0.271,0.826-1.112,1.188-0.326c0.062,0.863,0.787,1.152,0.598,0.748c-0.271-2.321-1.286-2.858-1.128-3.34
		c-0.105-0.44-0.945-0.806-0.58,0.101C80.009,20.044,79.969,20.351,79.969,20.351z"/>
	<path fill="#D061D6" stroke="#000000" stroke-width="0.25" stroke-miterlimit="10" d="M87.836,22.194
		c-0.038-0.436,0.09-0.278,0.281-0.219c0.45,0.25-0.072,0.537,0.105,0.68c0.156,0.146-0.115,0.373-0.115,0.193
		C88.111,22.647,87.756,22.415,87.836,22.194z"/>
	
		<ellipse transform="matrix(0.986 0.1669 -0.1669 0.986 5.0725 -14.4571)" fill="#D061D6" stroke="#000000" stroke-width="0.25" stroke-miterlimit="10" cx="88.542" cy="22.948" rx="0.063" ry="0.101"/>
	
		<ellipse transform="matrix(0.9361 -0.3517 0.3517 0.9361 -1.9112 29.2089)" fill="#D061D6" stroke="#000000" stroke-width="0.25" stroke-miterlimit="10" cx="79.433" cy="19.865" rx="0.174" ry="0.331"/>
</g>
</svg>
