<?xml version="1.0" encoding="utf-8"?>
<!-- Generator: Adobe Illustrator 16.0.0, SVG Export Plug-In . SVG Version: 6.00 Build 0)  -->
<!DOCTYPE svg PUBLIC "-//W3C//DTD SVG 1.1//EN" "http://www.w3.org/Graphics/SVG/1.1/DTD/svg11.dtd">
<svg version="1.1" id="Capa_1" xmlns="http://www.w3.org/2000/svg" xmlns:xlink="http://www.w3.org/1999/xlink" x="0px" y="0px"
	 width="600px" height="228.5px" viewBox="0 0 600 228.5" enable-background="new 0 0 600 228.5" xml:space="preserve">
<g id="mapa">
	<g id="isla_cabrera">
	</g>
	<g id="menorca">
	</g>
	<g id="ibiza">
	</g>
	<g id="formentera">
	</g>
	<g id="mallorca">
	</g>
</g>
<g>
	<path fill="#EA413D" stroke="#000000" stroke-width="0.25" stroke-miterlimit="10" d="M234.195,103.893
		c0.497-0.35,1.402-1.248,2.602-2.287c1.191-1.039,1.766,0.051,1.56,0.26c-0.207,0.209-0.678,0.779-0.678,0.779l-0.938,1.191
		c-0.103,0.209-0.881,1.146-1.143,1.354c-0.263,0.207-1.144,0.57-1.144,0.57c-0.521,0.621-1.562,1.301-1.562,1.301
		c-2.182,1.398-0.774-1.871-0.774-1.871C232.749,104.518,233.947,104.066,234.195,103.893z"/>
	<path fill="#EA413D" stroke="#000000" stroke-width="0.25" stroke-miterlimit="10" d="M353.595,24.646
		c-0.231-0.884-0.729-1.378-1.426,0.286c-1.384,1.09-1.146,3.792-4.286,4.155c-1.481-0.597-0.625,0.598-1.771,1.117
		c-3.428,0.104-2.597,1.559-4.547,2.051c-1.038,0.287-1.271,4.079-4.726,3.508c-1.897-0.364-1.115,2.259-2.7,3.297
		c-1.376-2.233-1.871-0.025-3.532,1.065c-0.229-0.909-2.806,0.286-3.479-0.988c-0.624-1.22-2.416,0.183-1.146,1.041
		c0.729,1.012-0.287,2.104-1.221,0.778c-0.545-0.493-0.91-0.103-0.91-0.103c-0.752,0.596-1.61-0.392-2.155,0.154
		c-2.673,0.182-1.584,2.286-0.854,2.779c0.882,0.52,0.36,1.585-0.208,1.169c-1.979-1.479-1.323-0.39-1.921,0.987
		c-3.771,2.805-2.832-1.246-5.85,1.871c-1.246,0.75-3.271,2.57-3.271,2.57c-0.494,1.583-1.998,1.194-3.017,2.257
		c-1.766,1.742-6.05,2.886-6.807,5.949c-0.102,1.116-0.492,3.713-4.727,4.676c-1.922-1.611-1.354,1.143-2.232,2.076
		c-5.664,3.793-6.521,8.105-9.508,9.039c-1.479-0.053-2.286,3.43-6.699,2.391c-2.885-1.479-1.848,1.507-3.845,1.715
		c-3.586,0.598-4.832,4.699-5.455,4.779c-2.287-0.08-0.91,1.688-2.907,3.039c-4.153,2.729-7.688,3.818-9.638,5.168
		c-0.83,0.338-0.47,2.209-1.249,2.185c-1.062,0.051-1.531,0.583-1.531,0.583c-5.351,5.57-6.884,0.585-10.598,6
		c-0.429,1.713-1.676,1.635-1.676,1.635c-1.129-0.039-1.285,3.781,0.815,4.48c0,0,0.663,0.584-0.976,2.883
		c0,0-0.738,0.938,1.325,0.779c0.699,1.129,0.391,2.844,2.842,2.492c-0.546,1.834,0.155,2.769,1.6,1.947
		c2.924-1.088,2.848-0.156,0.395,0.978c-5.026,1.284-3.585,3.114-2.3,2.567c0.854-0.312,1.677,0.272,1.868-0.662
		c0,0,2.961,0.586,2.414,1.562c-1.438,1.246-1.17,2.455,0.938,1.326c3.312-1.326,1.479-3.858,3.741-3.394
		c1.012-0.623,1.675,1.326,1.089,1.946c-1.249,1.406,0,2.494,1.832,0.546c0,0,1.284,0.272,1.401-0.271c0,0,1.599-4.245,5.336,1.207
		c0,0,0.232,1.365,1.207,1.562c1.479,0.661,0.155,1.401-1.168,1.282c-2.688-0.192-3.039,2.224-0.271,4.133
		c0.118,3.938,2.146-0.312,2.027,1.438c0,0-0.548,2.3,0.114,3.193c-0.854,4.092,3.507-0.193,3.74,2.771c0,0-0.041,1.284,0.39,1.44
		c0.659,0.039,1.677,1.205,1.906,0.971c1.665,0.084,3.664,0.271,2.609-1.358c0.739-0.741-0.855-3.312,0.702-3.392
		c2.183-1.479,2.423-6.42,2.647-7.479c0,0-0.078-4.44,1.521-4.284c1.675,0.075,2.222-2.063,4.715-1.793
		c5.145,0.776,4.364-5.143,7.053-4.363c0,0,2.339,1.521,3.118,1.521c2.375-0.155,3.465-2.337,0.428-2.958
		c0.312-5.027,3-0.701,6.389-0.975c3.039,0.584,6.393,4.168,7.247,4.244c1.362,1.326,1.64,3.232,3.661,2.572
		c0,0,7.094,5.688,5.927,8.375c-1.479,1.988-2.729,3.082-2.495,4.439c-1.36,1.365-3.392,1.402-1.791,3.938
		c7.639,10.129,0.699,10.633,2.646,14.453c0,0,1.871,4.288,3.312,4.985c0,0,2.529,1.987,4.361,2.338c0,0,2.375,0.733,3.66,2.062
		c3.157,4.09,4.13-1.285,7.17,1.135c4.988,3.31,2.027-4.521,10.167,1.865c2.812,1.83,3.587,3.433,4.287,0.74
		c1.208-2.375,5.146-0.425,7.403-0.779c0,0,8.338,5.187,6.271,8.26c-1.829,1.443-0.854,2.183,0.332,1.832
		c-0.06,2.729,5.242,1.363,5.356,4.755c-1.323,1.401,1.398,3.392,1.91,2.961c-0.432,2.604,2.413,1.364,3.311,4.172
		c0.938,5.021,8.688-0.858,8.847-3.705c0,0,0.7-0.312,0.816-0.467c0,0,0.194-0.74,0.584-0.938c0.934-0.379,0.938-2.022,1.521-2.224
		c1.21-0.31,2.341-3.412,4.055-3.185c4.154-0.489,2.438-2.646,3.454-3.01c1.815,0.207,5.352,0.807,5.508-0.625
		c1.479,0.133,1.035-1.56,1.505-1.56c1.376-0.104,1.117-0.957,1.507-1.66c0.517-0.924,0.441-1.299-0.646-2.051
		c1.145-0.056,0.803-1.483,1.688-0.494c1.354,1.246,1.869,0.336,2.233,0.181c0.854-0.287,2.262-0.336,0.983-1.272
		c-0.699-0.755,0.285-0.906,0.855,0c0.856,0.81,1.845-0.699,2.365-0.617c0.646-0.388,0.727-1.25,0.751-1.481
		c0-1.381,1.844-0.938,0.936-3.353c1.69,1.14,1.582-0.703,1.611-1.61c1.812-1.144,0.362-1.843,1.062-2.259
		c0.547-0.077,0.078-1.528,0.65-1.95c1.402-1.144,0.567-2.339,2.753-2.804c0.521-0.157,1.922-1.198,1.35-3.226
		c-0.424-0.504-0.747-1.221-0.521-1.43c0.839-1.607,0.189-5.427,0.655-6.259c0.671-1.842,2.333-5.737,2.1-6.36
		c1.712-0.781-0.623-2.752,0.962-3.092c0.856-0.207,0.908-2.47,1.896-2.884c0,0,1.56-1.146,1.736-2.338
		c-0.075-0.468-0.075-0.906,0.625-0.959c0.729-0.121,1.062-1.847,2.545-2.394c1.195-0.621,1.609-0.806,1.173-1.924
		c-0.648-1.351,0.694-0.804,1.528-1.22c2.027-0.78,1.017-1.455,3.949-1.922c-0.209-1.87,1.375-1.118,1.169-2.702
		c0.078-1.637,0.777-1.895,0.729-2.57c0.127-0.938,0.957-0.52,1.141-0.52c2.467,0.596,5.896-2.34,2.729-2.676
		c-3.721,0.023-2.342-3.818-1.48-5.818c0.936-0.832,0.231-7.479,4.365-6.647c4.646,2.131,4.127-0.679,4.596-1.662
		c0.369-0.062-1.039-3.119,2.104-2.961c1.222-0.026,1.016-1.923,0.774-2.313c1.457-2.103-0.935-2.856,0.053-4.127
		c1.271-1.065,0.058-2.521,0.209-2.962c0,0-0.883-3.896,2.421-4.312c2.953,0.337,1.896-3.041,0-2.907
		c-4.364,0.26-2.498-3.17-1.949-3.611c1.378-1.194-0.106-1.741-0.058-2.156c-0.054-1.402-2.487,0.469-3.942,0.025
		c-1.771,0.703-0.754-1.769-3.402-1.844c-1.947,0.392-0.911-1.998-2.495-2.129c-2.229-2.416-3.633,0.336-5.844-2.078
		c-1.299-2.207-2.961-1.377-3.713-3.562c-0.754-1.842-3.223-1.349-4.055,0.364c0.024,0.598-0.701,1.144,0,2.521
		c0.601,0.909-0.646,2.521-2.696,3.222c-1.074,0.258-4.136,2.183-4.312,2.312c-0.497,0.468-2.26,0.624-2.469,1.351
		c-0.039,0.723-2.104,1.065-2.391,1.688c-1.173,0.883-1.771-0.052-2.284,0.39c-2.575,3.146-7.038-1.093-7.771-1.063
		c-0.896-0.481-1.609-1.87-4.414-2.442c0,0-16.252-7.337-15.077-18.09c0.479-2.974,1.96-4.87,4.352-2.454
		c1.35,0.936,2.393-0.779,4-0.417c3.224,0.312,3.716-2.804,4.208-3.011c1.012-0.936,3.197-2.391,2.232-3.377
		c-1.146-0.598-1.896,0-1.867-0.805c0-0.676-1.273-2.104-0.104-2.598c1.582-0.025,0.261-1.507,1.43-1.636
		c1.242-0.467,2.906-1.532,1.399-2.261c-0.905-0.337-1.956-0.708-2.391-0.649c-0.983,0.754-0.128,2.028-1.244,2.234
		c-1.326,0.805-1.453,1.455-2.988,1.688l-1.558,1.325c-0.649,0.639-1.504,0.414-1.661,0.935c-0.856,0.961-1.378,0.545-1.872,0.233
		c-1.977-1.065-2.229,0.753-3.012,0.831c-0.858,0.183-1.509,0.208-1.849,0.649c-0.906,0.962-2.185,1.326-2.621,0.625
		c-3.795-4.649-6.621-13.065-0.053-11.352c0.855,0.416,1.194,0.728,1.374,1.014c0.779,1.014,1.196-0.104,0.729-0.779
		c-1.168-1.948,1.169-0.934,2.001-2.39c1.583-0.182,1.377-0.96,1.479-1.35c-0.102-1.948,2.284-2.182,2.284-0.312
		c0.468,0.934,0.68,0.595,0.68,0.595c0.805,0.649,1.817-0.7,2.677-1.582c1.466-1.599,3.846-2.521,3.846-3.352
		c0.26-0.832,2.468,0.599,3.479-0.545c1.065-1.22,3.098-3.819,2.909-4.728c0.106-1.35-0.752-0.623-1.271,0
		c-1.77,1.247-3.352,0.078-3.532,0.753c-0.883,1.221-3.324,1.351-2.598,0.623c0.68-0.458,1.143-1.455,0.229-1.506
		c0.026,0.208-0.468-0.285-0.725,0.079c-2.06-0.338-3.482,1.403-4.965,1.896c-0.677,0.495,0.341,0.779-1.738,1.454
		c-1.717,0.909-2.337,4.209-3.43,2.911c-0.729-0.52-1.223,0.728-1.769,0.466c-1.354,0.571-2.079,1.194-2.003,0.494
		c0.573-1.116,0-1.74-1.037-1.038c-0.96,0.753-2.363,2.961-3.815,2.778c-1.66,0-2.886,1.428-2.7,0
		c0.729-2.442-0.312-1.792-0.601-2.442c-1.19-0.311-2.415,0.935-2.438-0.078c-0.025-1.325-0.807-0.909-0.882-0.467
		c-0.363,0.701-1.146,1.091-1.226,0.779c-0.6-1.272-1.091-0.051-1.399-0.026c-1.226,0.261-2.104,1.505-2.829,1.481
		c-3.042,1.143-3.562,4.129-4.832,4.155c-1.82,0.287-3.092-0.441-3.248-0.728C355.411,24.672,354.531,25.633,353.595,24.646z"/>
</g>
<g>
	<path fill="#010202" d="M206.863,29.817c-0.075-1.476-0.174-3.247-0.151-4.566h-0.048c-0.361,1.24-0.806,2.56-1.34,4.018
		l-1.863,5.132h-1.033l-1.708-5.038c-0.507-1.489-0.926-2.855-1.226-4.112h-0.032c-0.031,1.319-0.108,3.091-0.203,4.676
		l-0.282,4.535h-1.303l0.738-10.574h1.735l1.81,5.114c0.438,1.302,0.8,2.463,1.062,3.561h0.047c0.269-1.067,0.646-2.229,1.116-3.561
		l1.882-5.114h1.742l0.657,10.574h-1.334L206.863,29.817z"/>
	<path fill="#010202" d="M212.111,31.136l-1.094,3.325h-1.416l3.594-10.574h1.646l3.608,10.574h-1.462l-1.131-3.325H212.111z
		 M215.578,30.068l-1.035-3.043c-0.233-0.691-0.394-1.32-0.547-1.93h-0.031c-0.155,0.627-0.332,1.271-0.533,1.912l-1.035,3.062
		L215.578,30.068L215.578,30.068z"/>
	<path fill="#010202" d="M219.997,23.887h1.364v9.429h4.52v1.145h-5.884V23.887z"/>
	<path fill="#010202" d="M227.402,23.887h1.363v9.429h4.521v1.145H227.4L227.402,23.887L227.402,23.887z"/>
	<path fill="#010202" d="M243.229,29.062c0,3.641-2.212,5.571-4.913,5.571c-2.792,0-4.752-2.165-4.752-5.366
		c0-3.358,2.087-5.555,4.911-5.555C241.36,23.712,243.229,25.926,243.229,29.062z M235.022,29.236c0,2.26,1.229,4.285,3.374,4.285
		c2.163,0,3.393-1.992,3.393-4.395c0-2.101-1.103-4.297-3.373-4.297C236.151,24.828,235.022,26.913,235.022,29.236z"/>
	<path fill="#010202" d="M244.996,24.028c0.688-0.141,1.678-0.22,2.62-0.22c1.453,0,2.396,0.267,3.059,0.864
		c0.533,0.47,0.831,1.191,0.831,2.007c0,1.396-0.878,2.323-1.992,2.7v0.045c0.816,0.283,1.303,1.036,1.555,2.135
		c0.349,1.475,0.597,2.493,0.813,2.902h-1.409c-0.175-0.299-0.408-1.208-0.706-2.527c-0.312-1.459-0.884-2.008-2.118-2.055h-1.289
		v4.582H245L244.996,24.028L244.996,24.028z M246.358,28.843h1.397c1.457,0,2.385-0.799,2.385-2.007
		c0-1.365-0.988-1.961-2.433-1.978c-0.658,0-1.129,0.063-1.354,0.126L246.358,28.843L246.358,28.843z"/>
	<path fill="#010202" d="M260.868,34.116c-0.508,0.252-1.51,0.503-2.794,0.503c-2.979,0-5.229-1.883-5.229-5.351
		c0-3.312,2.246-5.555,5.522-5.555c1.313,0,2.146,0.282,2.511,0.473l-0.332,1.113c-0.514-0.252-1.252-0.44-2.132-0.44
		c-2.479,0-4.126,1.586-4.126,4.363c0,2.589,1.49,4.253,4.062,4.253c0.833,0,1.685-0.175,2.229-0.44L260.868,34.116z"/>
	<path fill="#010202" d="M264.348,31.136l-1.1,3.325h-1.413l3.593-10.574h1.646l3.609,10.574h-1.459l-1.13-3.325H264.348z
		 M267.812,30.068l-1.035-3.043c-0.23-0.691-0.391-1.32-0.548-1.93h-0.032c-0.151,0.627-0.332,1.271-0.529,1.912l-1.038,3.062
		L267.812,30.068L267.812,30.068z"/>
</g>
</svg>
