<?xml version="1.0" encoding="utf-8"?>
<!-- Generator: Adobe Illustrator 16.0.0, SVG Export Plug-In . SVG Version: 6.00 Build 0)  -->
<!DOCTYPE svg PUBLIC "-//W3C//DTD SVG 1.1//EN" "http://www.w3.org/Graphics/SVG/1.1/DTD/svg11.dtd">
<svg version="1.1" id="Capa_1" xmlns="http://www.w3.org/2000/svg" xmlns:xlink="http://www.w3.org/1999/xlink" x="0px" y="0px"
	 width="600px" height="200px" viewBox="0 0 600 200" enable-background="new 0 0 600 200" xml:space="preserve">
<g id="mapa">
	<g id="isla_cabrera">
	</g>
	<g id="menorca">
	</g>
	<g id="ibiza">
	</g>
	<g id="formentera">
	</g>
	<g id="mallorca">
	</g>
</g>
<g>
	<path fill="#7744D8" stroke="#000000" stroke-width="0.25" stroke-miterlimit="10" d="M473.628,40.751"/>
	<path fill="#7744D8" stroke="#000000" stroke-width="0.25" stroke-miterlimit="10" d="M478.031,47.907"/>
	<path fill="#7744D8" stroke="#000000" stroke-width="0.25" stroke-miterlimit="10" d="M543.974,78.336"/>
	<path fill="#7744D8" stroke="#000000" stroke-width="0.25" stroke-miterlimit="10" d="M561.666,40.404c0,0,0.048,0.081-0.306-0.289
		c-0.312-0.385-1.368-0.361-1.414-0.06c-0.082,0.291-0.593,0.291-0.587-0.034c0.053-0.262-0.174-0.558-0.226-0.123
		c-0.069,0.609-0.191-0.122-0.576,0.034c-0.363,0.105,0.313-0.973-1.078-0.608c-0.277,0.174-0.209,0.471-0.75,0.401
		c-0.329,0.07-0.414,0.245-0.798-0.157c-0.906,1.062-1.22-0.087-1.567,0.593c-0.139,0.886-0.244,0.476-0.506,0.347
		c-0.296,0.052-0.396-0.678-1.077-0.086c-0.296,0.278-0.817-0.261-0.442-0.489c0.062-0.19-0.862-0.104-0.41-0.382
		c0.173,0.017,0.729-0.436,0.156-0.575c-0.312-0.244-1.741,0.644-1.775-0.261c-0.139-0.418,0.348-0.052,0.274-0.575
		c0.509-0.14-0.151-0.262-0.043-0.801c0.148-0.383-0.128-0.227-0.317-0.645c-0.143-0.278-0.523-0.297-0.349,0.191
		c0.052,0.419-0.709,0.516,0.14,0.731c0.453,0.453-0.229,0.191-0.192,0.591c-0.312,0.645-0.486-1.356-0.714-0.696
		c-0.053,0.384-0.258,0.009-0.364,0.122c0.111,0.378-0.276,0.453-0.089,0.749c0.191,0.158,0.156,1.149,1.201,2.316
		c0.053,0.975-0.383,0.765-0.608-0.192c-0.802,0.905-0.21-0.678-0.746-1.461c-0.838-0.993-0.056-1.132,0.242-2.072
		c0-0.209,0.121-1.027-0.141-0.505c-0.07,0.593-0.538,0.366-0.714,0.61c-0.104,0.261-0.646,0.367-0.208-0.051
		c0.12-0.332,0.606-0.21,0.606-0.662c-0.016-0.174,0.978-1.027,0.539-2.177c-0.241,0.8-0.261,0.141-0.539,0.245
		c-0.592,0.208,0.332-1.254-0.729-0.698c-1.027-0.087,0.715-1.863-0.12-2.071c-0.333,0.244-0.021-0.506-0.995-0.296
		c0,0-0.887,0.313-0.469,0.574c0.297,0.262-0.992,1.254-0.385,1.898c-0.139,0.645-0.905,0.783-0.922-0.279
		c-0.296-0.435-1.147,0.662-1.947-0.243c-0.263-0.401,0.035-0.436-0.194-0.644c-0.361-0.506,0.289-0.413,0.297-0.766
		c-0.053-0.47,0.559-0.349,0.594-0.47c-0.298-0.018-0.646-1.01-0.73-0.208c-0.226,0.278-0.505,0.104-0.384-0.244
		c-0.019-0.192-0.173,0.105-0.539-0.105c-0.244-0.261-0.312,1.324-0.889,0.366c-0.189-0.678,0.436-0.592,0.228-0.94
		c-0.019-0.139,0.331-0.8-0.14-0.8c-0.505,0.069-0.07-0.193-0.313-0.418c-0.12-0.192-0.154-0.47,0.121-0.228
		c0.141,0.158,0.211,0.418,0.365,0.158c0.21-0.262,0.4,0.244,0.559-0.141c0.227,0.088,0.383-0.503-0.033-0.643
		c-0.539-0.227-0.384-0.435-0.122-0.575c1.062-0.731-0.321-0.462-0.104-0.921c0.47-0.367-0.211-0.923,0.295-1.289
		c0.262-0.208,1.062,0.174,1.097-0.26c0-0.192,0.594-0.594-0.103-0.506c-1.012,0.069-0.557-0.714-1.934-0.609
		c0,0-0.212-0.295-0.818-0.818c-0.487-0.644-0.766,0.018-1.395,0.053c-0.104-0.088-0.506,0.33-0.89,0
		c-0.12-0.088-0.503,0.087-0.503-0.558c-0.034-0.382-0.348,0.349-0.872,0.47c-0.293,0.14-0.032,0.836,0.175,1.098
		c0.244,0.14-0.14,0.609,0.244,0.906c0.35,0.19,0.121,0.538,0.419,0.8c0.384,0.312-0.435,0.383-0.435,0.383s0.121,0.521,0.435,0.939
		c0.384,0.399-0.384,0.661-0.035,1.009c0.19,0.366-0.394,0.514-0.276,1.115c-0.021,0.121,0.695,2.071-0.297,2.401
		c-0.4,0.122,0.051-0.887-0.438-0.416c-0.242,0.364-0.626,0.434-0.189-0.071c0.24-0.174,0.349-0.662-0.121-0.174
		c0,0-0.329,0.261-0.592,0.609c-0.298,0.662,0.868,0.575,0.348,0.976c-0.385,0.016-0.453,0.608-0.662,0.086
		c0,0-0.035,0.103-0.208,0.487c-0.47,0.104-0.409-0.736-0.731-0.869c-0.521,0.087-0.088-0.297-0.436-0.419
		c-0.401-0.122,0.126-0.572-0.191-0.975c-0.154-0.208,0.539-0.349,0.507-0.557c-0.229-0.609,0.889-1.95,0.646-2.681
		c-0.018-0.348,0.781-0.713,0.539-0.923c-0.158-0.4,0.505-0.487,0.277-0.766c-0.019-0.208,0.471-0.279,0.312-0.626
		c-0.225-0.226,0.386-1.306-0.259-1.375c-0.54-0.105-0.524,0.835-0.958,0.243c-0.364-0.295-0.141,0.505-0.245,0.819
		c-0.312,0.243,0.438,1.043-0.52,1.062c-0.387,0.049-0.749,0.191-0.717-0.053c-0.018-0.14-0.766-0.035-1.341,0.07
		c0.034,0.226-0.627-0.07-0.504,0.94c-0.977,0.417,0.365,1.776-0.836,1.758c-0.594-0.086-0.332-0.574-0.609-0.958
		c-0.242-0.261-0.802-0.383-0.35-0.887c0.157-0.191-0.156-0.209,0.088-0.628c-0.592,0.07-0.067-1.636-0.748-0.696
		c-0.661-0.051-0.399-0.799-0.627-0.975c-0.417-0.487,0.66-0.782,0.523-1.933c-0.07-0.504-0.978-0.032-0.523-0.87
		c0.438-0.348-0.452-0.4-0.034-0.696c0.243,0.036,0.191-0.311,0.624-0.608c0.07-0.069-0.274,0.018-0.243-0.365
		c0.143-0.193-0.397-0.245,0.091-0.541c0.088-0.018,0.381-0.313,0.504-0.731c0.227-0.975-0.279,0.296-0.812-0.139
		c-0.196-0.14,0-0.545-0.067-0.823c-0.116-0.139-0.094-0.535-0.883-0.187c-0.464,0.037-0.547,0.65-1.021,0.07
		c-0.232-0.268-0.753-0.07-0.092,0.347c0.243,0.152,0.395,0.663,0.776,0.708c0.404,0.186,0.51,0.591,0.466,1.265
		c0,0.174,0.367,1.137-0.062,0.697c-0.126-0.141-0.604,0.311-0.337,0.516c0.135,0.179,0.269,0.227,0.151,0.761
		c-0.034,0.068,0.371,0.335,0.196,0.533c-0.209,0.325-0.225-0.224-0.464-0.325c-0.116-0.058-0.164-1.115-0.568-0.953
		c-0.177,0.128-0.209,0.348-0.014,0.5c0.188,0.279-0.174,0.476,0.014,0.637c0.128,0.432-0.222,0.258-0.579,0.571
		c-0.57,0.463-0.465-0.613-0.58-0.569c0,0-0.74,1.101-0.352,1.183c0.143,0.093-0.193,0.337,0.232,0.476
		c0.186,0.06-0.163,0.348-0.034,0.58c0.034,0.419-0.276,0.151-0.476,0.488c-0.188,0.325-0.396-0.453-0.776,0.105
		c-0.221,0.312-0.338-0.268-0.512,0.254c-0.305,0.813-0.673-0.475-0.825-0.383c-0.092,0.499-0.464-0.173-0.918,0.163
		c-0.253,0.256-0.996,0.231-0.812,0.766c0.406,0.557-0.301,1.242-0.43,0.743c-0.012-0.405-0.73,0.417-0.685-0.209
		c0.14-0.15-0.229-0.167-0.29-0.486c-0.221-0.477-0.279,0.545-0.951,0c-0.209-0.012-0.22-2.044-1.521-2.194
		c-0.093,0.012-0.705-0.44-0.755-0.069c0,0.731-0.37,0.37-0.789,0.556c-0.368,0.152-0.449,0.698-0.729,0.569
		c-0.568-0.023-0.406,0.372-0.743,0.291c-0.127-0.013-0.695-0.418-0.475,0.416c0.208,0.732-0.21,0.083-0.396,0.199
		c-0.326,0.046-0.13-0.43-0.511-0.383c-0.15,0.023-0.107-0.487-0.615-0.186c-0.231,0.232-0.453-0.464-0.824,0.013
		c-0.141,0.383-0.338-0.221-0.882,0.232c-0.338,0.324-0.403-0.327-0.673-0.07c-0.221,0.209-0.245-0.151-0.615,0.232
		c-0.15,0.162-0.478,0.116-0.85,0.464c-0.033,0.232-0.064,0.054-0.104,0.292c0.28,0.695-0.209,0.486-0.836,0.394
		c-0.208,0.371-0.356-0.117-0.648,0.394c-0.346,0.255-0.301-0.766-0.95-0.511c-0.349,0.349-0.302-0.069-0.72,0.046
		c-0.255-0.021-0.627-1.624-2.299-1.925c0,0,0,0-0.303,0.232c-0.464,0.604-0.74,0.069-1.183,0.557
		c-0.396,0.417-0.233,0.301-1.254,0.395c-0.929,0.556-0.442-2.461-2.623-1.161c-0.535,0.325,0.673,0.951-0.348,0.813
		c-0.351-0.047-0.163,0.44-1.14,0.371c-0.857-0.464-0.139,0.209-0.323,1.322c0,0,1.185,0.349,0.532,0.65
		c-0.187,0.071,0.324,0.488-0.209,0.464c-0.21,0.021-0.139,0.511-0.438-0.116c-0.352,0.023-0.228-0.25-0.65-0.326
		c-0.23-0.115-0.487,1.115-0.467-0.23c0-0.14-0.209-0.721-0.369-0.163c-0.209,0.51-0.674,0.835-1.023-0.464
		c0.117-0.604-0.438-0.395-0.51-1.208c-1.045-0.3-0.788-1.113-1.462-0.326c-0.066,0-0.23,0.303-0.557,0.141
		c-0.79,0.487-0.929-0.046-1.254,0c-0.187,0.162-1.277-0.234-0.818,0.313c0.627,0.227,0.07,1.34-0.103,0.679
		c0-0.138,0.103-0.679-0.438,0.173c-1.463,0.628-1.654-0.678-2.003-0.696c-0.469-0.089-0.086-0.87-0.729,0.348
		c-0.646,0.592-2.28-0.487-3.48,0.262c-1.533,0.227-1.027-0.366-1.984,1.079c-0.453,0.506-0.19-0.191-1.044-0.644
		c0.053,0.61-0.35,0.872-0.399,0.157c-0.02-0.244-0.279-0.401-0.438,0c-0.138,0.435-0.104-0.436-0.661,0.086
		c-0.606,0.419-0.241,1.341-0.782,1.689c-0.854,0.679,0.558,1.463-0.811,1.393c-0.163,0.053-0.391,0.156-0.163,0.278
		c0.104-0.017,0.312,0.261,0,0.401c-0.278,0.052-0.02,0.854-0.89,0.835c-0.522-0.227-0.696,0.47-0.384,0.662
		c0.14,0.052,0.507,0.292,0.471,0.749c0.017,0.277-0.296,0.243-0.296,0.54c-0.141,0.33-0.713-0.193-1.079,0.364
		c-0.209,0.244,0.209,1.236-0.575,0.732c-0.157-0.104-0.435,0.401-0.765,0.243c-0.522-0.312-0.682,0.279-0.662,0.593
		c-0.452,1.097,0.815,0.903,0.606,1.654c-0.503,0.226,0.419,0.208,0.019,0.886c-0.571,1.202,0.68,0.976,0.246,1.271
		c-0.279,0.609-0.817,0.646,0.661,1.149c0.89,0.243,1.271-1.062,1.549-0.576c0.606,1.202,0.748,1.185,0.766,0.261
		c0.123-0.99,0.123,0.784,0.437,0.819c0.454-0.348,1.024-0.122,1.22-0.087c0.488,0.191,0.47-0.714,2.21-1.271
		c0.818-0.312,0.332,0.191,0.121,0.278c-0.841,0.443-2,0.75-1.148,1.08c0.663,0.486,2.229,0.365,0.889,0.609
		c-0.608-0.035-0.261,0.069-0.608,0.087c-0.312-0.14,0.263,1.358,0.438,2.264c0.069,0.278,0.278,0.382,0.035,0.539
		c-0.124,0.142,0.153,0.332,0.243,0.174c0.328-0.592,0.228,0.174,0.854,0.191c1.185,0.365-0.087,0.384-0.593,0.141
		c-0.104,0.521-0.504,0.938-0.47,1.41c-0.146,0.933,0.19,1.304,0.19,1.304c0.228,0.383,1.096-0.068,0.384,0.541
		c-0.455,0.277,0.469,1.115,0.068,1.409c-0.313,0.052-0.243,0.541-0.541,0.523c-0.485,0.26,0.244,0.835-0.504,0.662
		c-1.254,1.043,0.07,2.14-0.485,2.576c-0.229,0.122-0.262,0.435-0.364,0.435c-0.438,0.279,0.799,0.54,0.171,0.941
		c-0.747,0.626-0.104,1.897-0.504,2.036c-0.609,1.062-0.262,1.514,0.487,2.384c0.262-0.748,0.451-0.417,0.488-0.347
		c0.296,0.261,0.121-0.018,0.47-0.035c0.21,0.097,0.226-0.628,1.133-0.436c0.246,0.139,0.485-0.661,0.503-0.017
		c-0.035,0.4,0.382,0.174,0.228,0.539c0.019,0.314,0.191-0.051,0.33-0.051c-0.087-0.453,0.506-0.941,0.817-0.383
		c0.158,0.331,0.158-0.052,0.627,0.383c0.377,0.219,0.66-0.175,0.957,0.174c0.488,0.313,0.54-0.488,0.801-0.035
		c0.122,0.452,1.166-0.244,1.201,0.208c0.247,0.178,0.383-0.208,0.577,0c0.302,0.041,0.259-0.73,0.555-0.245
		c0.156,0.245,0.191-0.052,0.661,0.036c0.769,0.191,1.271-0.28,1.463-0.104c0.224,0.179,0.243-0.192,0.472,0.017
		c0.305,0.119,0.241-0.4,0.538-0.174c0.277,0.238,0.277-0.174,0.609-0.139c0.418-0.053,0.019-0.521,0.174-0.556
		c0.229-0.07,0.142-0.401,0.453-0.314c0.624-0.124,0.713,0.087,0.767,0.139c0.331,0.192-0.503,1.044,0,1.062
		c1.133,0.244,0.644-1.375,1.22-0.818c1.271,0.992,2.174-0.418,2.159-0.835c0.226-0.319-0.02-0.471,0-0.767
		c0.26-0.452,0.382,0.384,0.469,0.436c0.14,0.696,0.688-0.303,0.87-0.418c0.227,0.052,0.541-0.209,1.375-0.104
		c0.453,0.156,0.453,0.156,0.801-0.244c1.324-0.681,0.572-0.545,0.716-0.959c0.104-0.956,0.33,0.104,0.646,0.122
		c0.693,0.227,1.077,1.062,1.649,0.492c0.541-0.682,0.646-0.038,1.013-0.561c0.242-0.331,0.748-0.227,1.078-0.472
		c1.098,0.907-1.147,0.56,0,0.959c0.436,0.853,1.199,0.209,1.357,0.644c0.956,0.123,0.769-0.549,0.938-0.57
		c0.177-0.053,0.155-0.289,0.245,0c0.062,0.188,0.283,0.095,0,0.397c0.067,0.348,0.227-0.104,0.867,0.417
		c1.604,1.236,2.369-0.748,2.476,0.174c-0.265,0.8,0.644,0.975,1.409,1.219c0.73,0.294,0.537-0.455,0.748,0.017
		c0.104,0.192,0.66-0.541,0.695,0.278c-0.035,0.4,0.732,0.731,1.463,0.801c0.713-0.052,0.679-0.645,1.812-0.312
		c1.077,0.296,1.637,1.149,2.262,1.114c0.592,0.278,0.522,0.557,1.356,0.678c0.819,0.419,0.487,1.184,1.235,0.888
		c0.384,0.139,0.521,0.436,0.646,0.54c0.312,0.261,0.4,0.575,0.695,0.192c0.688-0.192,2.453,1.584,3.083,1.758
		c1.877,1.062,1.636,0.957,1.759,2.071c0.043,0.135,0.225,0.458,0.389,0.273c0.207-0.337,0.231,0.231,0.347,0.244
		c0.44,0.115-0.021,0.463,0.407,0.638c0.207,0.147,0.173,0.638,0.996,0.869c0.278,0.094,0.396,0.628,0.58,0.291
		c0.303-0.383,0.674,0.905,0.977,0.847c0.289,0.046,0.371,0.511,0.883,0.465c0.53-0.018,0.916,0.836,1.625,0.766
		c0.477-0.058,0.93,1.125,1.447,0.953c0.628-0.15,0.838,0.625,1.453,0.603c0.963,0.047,0.952-0.277,0.952-0.707
		c0.068-0.627,0.579,0.336,0.173,0.604c-0.162,0.896,0.674,0.696,0.709,0.801c0.187,0.18,0.463,0.074,0.984,0.527
		c0.559,0.453,0.628-0.348,0.646-0.4c0.066-0.538,0.539,0.141,0.104,0.539c-0.104,0.592,0.436,0.141,0.539,0.471
		c0.088,0.227,0.228-0.104,0.975,0.783c0.609,0.557,0.94,0.331,1.115,0.609c0.068,0.418,0.416,0.174,0.416,0.487
		c0.052,0.314,0.42,0.192,0.748,0.593c0.472,0.418,0.454,0.034,0.488-0.244c0.036-0.975,0.295,0.403,0.364,0.429
		c0.052,0.233,0.645,0.233,0.486,0.633c0.104,0.558,0.663,0.175,0.609,0.575c-0.068,0.418,0.782-0.123,0.782,0.348
		c0.143,0.33,0.783,1.027,1.168,1.045c0.295,0.156,1.162,0.644,1.443,0.852c0.524,0.611,0.646,0.228,0.854,0.523
		c0.277,0.33,0.229-0.505,0.522,0c0.278,0.312,0.418,0.436,0.418,0.436c0.312-0.314,0.485-0.68,0.505-0.279
		c-0.681,0.853,1.236,0.33,0.227,1.167c-0.134,0.284,0.471,0.62,0.669,0.528c0.439,0.033-0.163-0.779,0.3-0.848
		c0.188,0.023,0.255-0.221,0.674,0.012c0.141,0.243,0.582,0.047,0.661,0.254c0.188,0.326,0.245-0.034,0.269-0.115
		c0.015-0.58,0.269,0.209,0.323,0.303c0.118,0.232,0.383,0.128,0.649,0.464c0.663,0.429,0.083,0.661,0.166,0.72
		c0.043,0.244,0.483,0.161,0.578,0c0.324-0.5,0.161,0.08,0.566,0.068c0.385,0.151,0.083,0.616,0.454,0.58
		c0.335,0.036,0,0.302,0.438,0.385c0.548,0.092,0.433,0.928,0.548,0.788c0.209-0.115,0.267,0.257,0.438,0.175
		c0.198,0.045-0.348-0.918,0.188-0.615c0.418-0.221,0.53,0.209,0.647,0.104c0.27-0.371,0.661,0.383,0.85,0.303
		c0.383-0.151,1.102,0.533,1.438,0.396c0.508,0,0.703,0.164,0.976,0.174c0.5-0.162,0.466,0,0.358,0.104
		c-0.565,0.314,1.174,0.593,1.823,0.512c0.532-0.047,1.462-0.479,1.565-0.639c-0.43-0.986,0.977-0.696,1.254-0.835
		c0.14-0.128,0.114-0.674,1.021-1.358c0.312-0.244,0.591-0.72,0.558-0.893c0.056-0.369,0.021-0.5-0.104-0.383
		c-0.268,0.104-0.14-0.198-0.14-0.371c-0.255-0.385-0.533-0.559-0.022-0.432c0.279,0.338,0.43-0.035,0.581-0.15
		c0.104-0.162,0.046-0.43,0.242-0.626c0.141-0.372,0.42-0.163,0.615-0.094c0.521,0.243,0.068-0.372,0.187-0.661
		c0.085-0.355-0.358-0.012-0.466-1.008c-0.637-0.699,0.396-0.616,0.313-1.093c-0.046-0.313,0.176-0.544,0.176-0.812
		c0.242-0.918,0.985-0.279,0.929-0.674c-0.013-0.398-0.28-0.348-0.188-0.73c-0.058-0.324-0.464-0.014-0.221-0.545
		c0.131-0.121-0.336-0.186,0.117-0.534c0.187-0.29-0.522-0.478-0.325-1.126c0.069-0.186-0.15-0.162-0.069-0.592
		c-0.062-0.102-0.512,0-0.647-0.094c-0.73,0.418-0.709-0.034-0.291-0.047c0.229-0.058,0.301-0.207,0.847-0.034
		c0.424,0.034,0.498-0.093,0.511-0.29c-0.276-0.324-0.45-0.72-0.511-0.858c-0.14-0.243-0.324-0.22-0.347-0.587
		c0.008-0.175-0.326-0.202-0.454-0.666c-0.092-0.314-0.394-0.278-0.546-0.395c-0.229,0.127-0.695,0.244-0.416-0.105
		c0.218-0.277,0.218-0.476-0.164-0.441c-0.383,0.059-0.383-0.429-0.058-0.359c0.348-0.011-0.174-0.395-0.232-0.611
		c-0.208-0.248-0.976,0.321-0.729-0.051c0.278-0.208-0.081-0.44-0.278-0.417c-0.361-0.013-0.222,0.185-0.615-0.07
		c-0.208-0.221-0.222,0.034-0.638-0.383c-0.046-0.106-0.559,0.081-0.57-0.257c-0.104-0.256-0.465,0.117-0.521,0.303
		c-0.243,0.394-0.29,0.058-0.209-0.417c0.163-0.372,0.07-0.701-0.061-0.929c-0.242-0.268-0.961,0.335-1.091,0.278
		c-0.421,0.001-0.66-0.395-0.985-0.325c-0.276,0.151-0.695-0.325-0.757-0.348c-0.938-0.348-0.866-1.613-0.392-0.917
		c0.185,0.279,0.242,0.396,0.902,0.336c0.629,0.116,1.312,0.22,1.276,0.441c-0.022,0.303,0.359,0.198,0.198-0.01
		c-0.163-0.396,0.451-0.117,0.568-0.152c0.33-0.012,0.544,0.325,0.8,0.174c-0.151-0.731,0.08-0.394,0.198-0.244
		c0.229,0.183,0.302,0.568,0.721,0.395c0.32-0.163,0.229,0.383,0.438,0.232c0.369-0.268,0.521,0.406,0.73,0.326
		c0.673,0.543,0.87,0.37,1.147-0.106c0.255-0.557,0.545,0.208,0.288,0.348c-0.393,0.326,0.535,0.209,0.095,0.638
		c-0.128,0.453,0.822,0.314,0.72,0.453c-0.08,0.233,0.407,0.324,0.663,0.534c0.545,0.383,1.073,0.604,1.095,0.719
		c0.46,0.336-0.411,0.776-0.388,0.927c0.431,0.453,0.065,0.479,0.267,0.838c0.269,0.51,0.453,0.59,0.547,0.184
		c0.255-0.754,0.558,0.14,0.73,0.076c0.342-0.046,0.475-0.725,0.995-0.645c0.514,0.152,0.406-0.324,0.696-0.346
		c0.363,0.004,0.466-0.164,0.488-0.35c-0.409-0.417-1.658-0.882-1.985-0.755c-0.545,0.337-0.322-0.452-0.565-0.382
		c-0.431,0.163-0.812,0.232-0.511-0.209c0.08-0.185-0.361-0.197,0.172-0.79c0.061-0.359-0.546-0.255-0.161-0.614
		c0.141-0.244-0.36-0.128-0.337-0.673c0.034-0.429-0.768-0.347-0.396-1.092c0.144-0.555-0.206-0.521,0.118-0.788
		c0.255-0.278-0.116-0.303-0.208-0.082c-0.173,0.232-0.231,0.198-0.432,0.104c-0.335,0.023-0.301,0.117-0.799,0.152
		c-0.567,0.116-0.06-0.522-0.614-0.801c-0.417-0.348-1.058-0.777-0.478-1.114c0.207-0.128-0.396-0.674-0.244-0.998
		c0-0.594-0.903-0.406-1.021-0.594c-0.093-0.463-0.788,0.094-0.43-0.394c0.149-0.197-0.069-0.859,0.511-0.789
		c0.209,0.116,0.221-0.488-0.164-0.476c-0.558,0.116-0.499-0.267-0.347-0.708c0.068-0.442-0.521-0.639-0.277-0.837
		c0.195-0.371-0.337-0.067-0.487-0.266c-0.047-0.37-0.338-0.731-0.372-0.963c-0.15-0.278-0.44,0.023-0.533-0.301
		c-0.221-0.314-0.337-0.058-0.418-0.325c-0.125-0.239-0.579-0.069-0.231-0.848c0-0.325-0.578-0.312,0.348-1.091
		c0.488-0.093,0.304-0.639,0.64-0.649c0.268-0.221,0.695-0.558,0.537-0.639c-0.211-0.348-0.771,0.22-0.828-0.208
		c0.117-0.337-0.255-0.64,0.104-0.859c-0.141-0.477-0.59-0.604-0.788-0.5c-0.532,0.708-0.614-0.219-1.312,0.175
		c-0.419,0.557-1.08-0.175-0.709-0.534c0.57-0.592,0.977,0.127,1.079-0.429c0.048-0.522-0.382-0.453-0.127-0.917
		c0.149-0.267-0.439-0.685-0.857-0.14c-0.744,0.604-0.177-0.569-0.34-0.534c-0.301-0.244,0.362-0.116,0.456-0.233
		c0.147-0.498-0.769-0.068-0.743-0.428c0.128-0.418-0.697-0.326-0.593,0.034c0.059,0.464-0.465-0.115-0.559,0
		c-0.626-0.034,0.116-0.579-0.104-0.638c-0.336-0.569,0.533-1.033,0.476-1.242c-0.22-0.382,0.036-0.394,0.161-0.684
		c0.313-0.778-0.207-1.196-0.01-1.277c0.256-0.244,0.638,0.057,0.903-0.348c0.722-0.407,0.478-0.58,0.149-0.511
		c-0.692,0.233-0.938,0.349-0.938-0.023c-0.046-0.266-0.614,0.128-0.021-0.638c-0.083-0.813-0.23-0.337-0.521-0.533
		c-0.163-0.384-0.486-0.058-0.438-0.559c0.242-0.533-0.188-0.834,0.092-0.963c0.277-0.091,0.349-0.476,0.754-0.522
		c0.287,0.01,0.279-0.336,0.579-0.197c0.279,0.221,0.271-0.15,0.561,0.023C561.483,40.607,561.666,40.404,561.666,40.404z"/>
	<path fill="#7744D8" stroke="#000000" stroke-width="0.25" stroke-miterlimit="10" d="M568.142,68.899
		c0.197,0.053,0.835,0.054,1.034,0.669c0.066,0.256,0.288,0.964,0.335,1.474c0,0.209,0.058,0.567-0.142,0.384
		c-0.256-0.65-0.49-0.487-0.496-0.686c-0.071-0.291-0.467-0.407-0.441-0.859c0.139-0.302-0.835-1.055-0.533-0.974L568.142,68.899z"
		/>
	<path fill="#7744D8" stroke="#000000" stroke-width="0.25" stroke-miterlimit="10" d="M562.825,50.373
		c1.683,0.244,1.161-0.581,1.578-0.743c0.14-0.151,0.277-0.452,0.059-0.406c-0.256,0.046-0.256-0.209-0.406-0.116
		c-0.578,0.174-0.384-0.753-0.545-0.708c-0.278-0.162-0.129-0.696-0.255-0.59c-0.338,0.3-0.776,0.73-0.547,0.741
		c0.242,0.059-0.093,0.349,0.104,0.419c0.279,0.22-0.395,0.557-0.166,0.835C563.152,49.921,562.235,50.362,562.825,50.373z"/>
	<path fill="#7744D8" stroke="#000000" stroke-width="0.25" stroke-miterlimit="10" d="M550.277,35.494c0,0-0.332,0.575-0.104,0.645
		c0.398,0.07,0.066-0.504,0.398-0.47c0.222,0.05,0.174-0.243,0.313-0.47c0.112-0.162-0.036-0.522-0.245-0.121
		C550.468,35.251,550.277,35.494,550.277,35.494z"/>
	<path fill="#7744D8" stroke="#000000" stroke-width="0.25" stroke-miterlimit="10" d="M550.202,34.434
		c0.507,0.208-0.027,0.406,0.142,0.592c0.171,0.184-0.263,0.174-0.329-0.13C549.965,34.715,550.202,34.434,550.202,34.434z"/>
	<path fill="#7744D8" stroke="#000000" stroke-width="0.25" stroke-miterlimit="10" d="M524.23,17.512
		c0.213,0.227,0.299,0.4,0.665,0.245c0.14-0.453-0.087-0.558-0.122-0.766C524.6,16.887,524.23,17.512,524.23,17.512z"/>
	<path fill="#7744D8" stroke="#000000" stroke-width="0.25" stroke-miterlimit="10" d="M565.735,88.38
		c-0.664-0.174-0.313,0.263,0,0.331c0.591,0.4,0.432-0.244,1.095,0.088c0.959,0.243,1.567-0.273,1.098-0.459
		c-0.833-0.83-0.979-0.047-1.202-0.43C566.483,87.578,566.596,88.713,565.735,88.38z"/>
</g>
<g>
	<path fill="#1D1D1B" d="M492.889,98.614c-0.06-1.091-0.128-2.406-0.115-3.383h-0.034c-0.27,0.918-0.596,1.896-0.988,2.976
		l-1.386,3.802h-0.768l-1.27-3.731c-0.369-1.104-0.687-2.115-0.904-3.046h-0.022c-0.022,0.977-0.083,2.292-0.151,3.464l-0.21,3.361
		h-0.965l0.546-7.838h1.29l1.342,3.792c0.321,0.964,0.592,1.825,0.787,2.64h0.033c0.198-0.791,0.479-1.65,0.826-2.64l1.396-3.792
		h1.29l0.486,7.838h-0.985L492.889,98.614z"/>
	<path fill="#1D1D1B" d="M499.685,98.383h-3.046v2.824h3.396v0.85h-4.407v-7.838h4.232v0.85h-3.221v2.478h3.046V98.383z"/>
	<path fill="#1D1D1B" d="M501.344,102.057v-7.838h1.104l2.51,3.966c0.586,0.919,1.036,1.743,1.409,2.545l0.023-0.013
		c-0.095-1.045-0.118-1.999-0.118-3.221v-3.279h0.954v7.839h-1.022l-2.487-3.978c-0.545-0.871-1.067-1.768-1.465-2.615l-0.034,0.011
		c0.058,0.989,0.08,1.931,0.08,3.233v3.349H501.344L501.344,102.057z"/>
	<path fill="#1D1D1B" d="M515.686,98.057c0,2.697-1.639,4.128-3.638,4.128c-2.069,0-3.523-1.605-3.523-3.979
		c0-2.487,1.547-4.115,3.639-4.115C514.303,94.092,515.686,95.732,515.686,98.057z M509.607,98.185c0,1.675,0.906,3.174,2.498,3.174
		c1.604,0,2.513-1.479,2.513-3.255c0-1.559-0.813-3.186-2.5-3.186C510.444,94.918,509.607,96.465,509.607,98.185z"/>
	<path fill="#1D1D1B" d="M516.994,94.326c0.513-0.107,1.243-0.164,1.941-0.164c1.082,0,1.778,0.197,2.267,0.639
		c0.396,0.35,0.616,0.885,0.616,1.488c0,1.035-0.647,1.722-1.477,2v0.035c0.604,0.21,0.965,0.768,1.15,1.582
		c0.256,1.092,0.44,1.848,0.604,2.148h-1.045c-0.128-0.221-0.303-0.896-0.524-1.872c-0.23-1.081-0.647-1.489-1.567-1.522h-0.952
		v3.396h-1.014V94.326L516.994,94.326z M518.008,97.895h1.033c1.08,0,1.769-0.594,1.769-1.488c0-1.012-0.732-1.453-1.802-1.465
		c-0.489,0-0.838,0.047-1,0.092V97.895z"/>
	<path fill="#1D1D1B" d="M528.759,101.801c-0.373,0.186-1.117,0.372-2.068,0.372c-2.211,0-3.875-1.396-3.875-3.966
		c0-2.451,1.664-4.115,4.094-4.115c0.979,0,1.596,0.209,1.86,0.35l-0.245,0.826c-0.382-0.188-0.928-0.326-1.58-0.326
		c-1.837,0-3.056,1.175-3.056,3.232c0,1.918,1.103,3.15,3.009,3.15c0.616,0,1.245-0.129,1.65-0.326L528.759,101.801z"/>
	<path fill="#1D1D1B" d="M531.334,99.591l-0.812,2.466h-1.046l2.662-7.838h1.221l2.675,7.838h-1.082l-0.838-2.466H531.334z
		 M533.904,98.801l-0.766-2.256c-0.176-0.512-0.291-0.977-0.407-1.43h-0.023c-0.114,0.465-0.242,0.941-0.395,1.419l-0.768,2.267
		H533.904z"/>
</g>
</svg>
