<?xml version="1.0" encoding="utf-8"?>
<!-- Generator: Adobe Illustrator 16.0.0, SVG Export Plug-In . SVG Version: 6.00 Build 0)  -->
<!DOCTYPE svg PUBLIC "-//W3C//DTD SVG 1.1//EN" "http://www.w3.org/Graphics/SVG/1.1/DTD/svg11.dtd">
<svg version="1.1" id="Capa_1" xmlns="http://www.w3.org/2000/svg" xmlns:xlink="http://www.w3.org/1999/xlink" x="0px" y="0px"
	 width="600px" height="200px" viewBox="0 0 600 200" enable-background="new 0 0 600 200" xml:space="preserve">
<g id="mapa">
	<g id="isla_cabrera">
	</g>
	<g id="menorca">
	</g>
	<g id="ibiza">
	</g>
	<g id="formentera">
	</g>
	<g id="mallorca">
	</g>
</g>
<g>
	<g>
		<path fill="none" stroke="#000000" stroke-width="0.25" stroke-miterlimit="10" d="M473.628,40.751"/>
		<path fill="none" stroke="#000000" stroke-width="0.25" stroke-miterlimit="10" d="M478.031,47.907"/>
		<path fill="none" stroke="#000000" stroke-width="0.25" stroke-miterlimit="10" d="M543.974,78.336"/>
		<path fill="none" stroke="#000000" stroke-width="0.25" stroke-miterlimit="10" d="M561.667,40.404c0,0,0.047,0.081-0.305-0.289
			c-0.312-0.385-1.368-0.361-1.414-0.06c-0.082,0.291-0.593,0.291-0.587-0.034c0.053-0.262-0.174-0.558-0.226-0.123
			c-0.069,0.609-0.191-0.122-0.576,0.034c-0.363,0.105,0.314-0.973-1.078-0.608c-0.277,0.174-0.209,0.471-0.75,0.401
			c-0.329,0.07-0.414,0.245-0.798-0.157c-0.906,1.062-1.22-0.087-1.567,0.593c-0.139,0.886-0.244,0.476-0.506,0.347
			c-0.296,0.052-0.398-0.678-1.077-0.086c-0.296,0.278-0.819-0.261-0.444-0.489c0.062-0.19-0.862-0.104-0.41-0.382
			c0.173,0.017,0.731-0.436,0.156-0.575c-0.312-0.244-1.741,0.644-1.775-0.261c-0.139-0.418,0.348-0.052,0.274-0.575
			c0.509-0.14-0.151-0.262-0.043-0.801c0.15-0.383-0.126-0.227-0.317-0.645c-0.141-0.278-0.523-0.297-0.349,0.191
			c0.052,0.419-0.708,0.516,0.14,0.731c0.453,0.453-0.227,0.191-0.192,0.591c-0.312,0.645-0.488-1.356-0.714-0.696
			c-0.053,0.384-0.258,0.009-0.364,0.122c0.111,0.378-0.278,0.453-0.089,0.749c0.191,0.158,0.156,1.149,1.201,2.316
			c0.053,0.975-0.383,0.765-0.608-0.192c-0.802,0.905-0.21-0.678-0.748-1.461c-0.836-0.993-0.054-1.132,0.244-2.072
			c0-0.209,0.121-1.027-0.141-0.505c-0.07,0.593-0.538,0.366-0.714,0.61c-0.104,0.261-0.645,0.367-0.208-0.051
			c0.12-0.332,0.607-0.21,0.607-0.662c-0.015-0.174,0.977-1.027,0.54-2.177c-0.243,0.8-0.261,0.141-0.54,0.245
			c-0.591,0.208,0.333-1.254-0.729-0.698c-1.027-0.087,0.715-1.863-0.12-2.071c-0.333,0.244-0.021-0.506-0.995-0.296
			c0,0-0.887,0.313-0.469,0.574c0.297,0.262-0.992,1.254-0.385,1.898c-0.137,0.645-0.905,0.783-0.922-0.279
			c-0.295-0.435-1.147,0.662-1.947-0.243c-0.262-0.401,0.035-0.436-0.194-0.644c-0.362-0.506,0.289-0.413,0.297-0.766
			c-0.053-0.47,0.557-0.349,0.592-0.47c-0.296-0.018-0.645-1.01-0.73-0.208c-0.226,0.278-0.505,0.104-0.384-0.244
			c-0.017-0.192-0.173,0.105-0.539-0.105c-0.244-0.261-0.312,1.324-0.889,0.366c-0.189-0.678,0.436-0.592,0.228-0.94
			c-0.019-0.139,0.331-0.8-0.14-0.8c-0.505,0.069-0.07-0.193-0.313-0.418c-0.12-0.192-0.155-0.47,0.121-0.228
			c0.14,0.158,0.211,0.418,0.365,0.158c0.21-0.262,0.401,0.244,0.559-0.141c0.225,0.088,0.382-0.503-0.035-0.643
			c-0.539-0.227-0.382-0.435-0.122-0.575c1.062-0.731-0.321-0.462-0.104-0.921c0.47-0.367-0.211-0.923,0.295-1.289
			c0.262-0.208,1.062,0.174,1.097-0.26c0-0.192,0.592-0.594-0.103-0.506c-1.012,0.069-0.557-0.714-1.934-0.609
			c0,0-0.21-0.295-0.818-0.818c-0.487-0.644-0.766,0.018-1.393,0.053c-0.104-0.088-0.506,0.33-0.89,0
			c-0.12-0.088-0.503,0.087-0.503-0.558c-0.034-0.382-0.348,0.349-0.872,0.47c-0.293,0.14-0.032,0.836,0.175,1.098
			c0.244,0.14-0.14,0.609,0.244,0.906c0.348,0.19,0.121,0.538,0.419,0.8c0.384,0.312-0.435,0.383-0.435,0.383
			s0.121,0.521,0.435,0.939c0.384,0.399-0.384,0.661-0.035,1.009c0.19,0.366-0.394,0.514-0.278,1.115
			c-0.02,0.121,0.697,2.071-0.297,2.401c-0.4,0.122,0.051-0.887-0.436-0.416c-0.242,0.364-0.626,0.434-0.191-0.071
			c0.242-0.174,0.349-0.662-0.121-0.174c0,0-0.329,0.261-0.592,0.609c-0.296,0.662,0.87,0.575,0.348,0.976
			c-0.385,0.016-0.453,0.608-0.662,0.086c0,0-0.035,0.103-0.208,0.487c-0.47,0.104-0.409-0.736-0.731-0.869
			c-0.522,0.087-0.088-0.297-0.436-0.419c-0.401-0.122,0.126-0.572-0.191-0.975c-0.156-0.208,0.539-0.349,0.505-0.557
			c-0.227-0.609,0.889-1.95,0.646-2.681c-0.018-0.348,0.781-0.713,0.539-0.923c-0.158-0.4,0.505-0.487,0.277-0.766
			c-0.017-0.208,0.471-0.279,0.312-0.626c-0.225-0.226,0.386-1.306-0.259-1.375c-0.54-0.105-0.524,0.835-0.958,0.243
			c-0.364-0.295-0.141,0.505-0.245,0.819c-0.312,0.243,0.436,1.043-0.52,1.062c-0.385,0.049-0.749,0.191-0.715-0.053
			c-0.018-0.14-0.766-0.035-1.341,0.07c0.034,0.226-0.627-0.07-0.504,0.94c-0.977,0.417,0.365,1.776-0.836,1.758
			c-0.594-0.086-0.332-0.574-0.609-0.958c-0.244-0.261-0.802-0.383-0.35-0.887c0.157-0.191-0.156-0.209,0.088-0.628
			c-0.592,0.07-0.068-1.636-0.748-0.696c-0.661-0.051-0.401-0.799-0.627-0.975c-0.417-0.487,0.66-0.782,0.523-1.933
			c-0.07-0.504-0.976-0.032-0.523-0.87c0.436-0.348-0.452-0.4-0.034-0.696c0.243,0.036,0.191-0.311,0.624-0.608
			c0.07-0.069-0.276,0.018-0.243-0.365c0.141-0.193-0.399-0.245,0.089-0.541c0.088-0.018,0.381-0.313,0.504-0.731
			c0.227-0.975-0.279,0.296-0.812-0.139c-0.197-0.14,0-0.545-0.069-0.823c-0.116-0.139-0.092-0.535-0.882-0.187
			c-0.463,0.037-0.546,0.65-1.021,0.07c-0.232-0.268-0.753-0.07-0.092,0.347c0.243,0.152,0.395,0.663,0.778,0.708
			c0.404,0.186,0.508,0.591,0.464,1.265c0,0.174,0.369,1.137-0.06,0.697c-0.126-0.141-0.604,0.311-0.337,0.516
			c0.135,0.179,0.268,0.227,0.151,0.761c-0.034,0.068,0.371,0.335,0.198,0.533c-0.209,0.325-0.225-0.224-0.464-0.325
			c-0.117-0.058-0.164-1.115-0.57-0.953c-0.175,0.128-0.209,0.348-0.012,0.5c0.188,0.279-0.174,0.476,0.012,0.637
			c0.128,0.432-0.22,0.258-0.579,0.571c-0.57,0.463-0.465-0.613-0.58-0.569c0,0-0.74,1.101-0.35,1.183
			c0.141,0.093-0.195,0.337,0.232,0.476c0.185,0.06-0.163,0.348-0.034,0.58c0.034,0.419-0.278,0.151-0.476,0.488
			c-0.187,0.325-0.396-0.453-0.776,0.105c-0.221,0.312-0.338-0.268-0.512,0.254c-0.304,0.813-0.673-0.475-0.825-0.383
			c-0.092,0.499-0.464-0.173-0.918,0.163c-0.253,0.256-0.996,0.231-0.811,0.766c0.406,0.557-0.301,1.242-0.43,0.743
			c-0.012-0.405-0.732,0.417-0.685-0.209c0.14-0.15-0.227-0.167-0.29-0.486c-0.221-0.477-0.279,0.545-0.951,0
			c-0.209-0.012-0.22-2.044-1.521-2.194c-0.093,0.012-0.707-0.44-0.755-0.069c0,0.731-0.37,0.37-0.789,0.556
			c-0.37,0.152-0.451,0.698-0.731,0.569c-0.568-0.023-0.406,0.372-0.743,0.291c-0.127-0.013-0.695-0.418-0.475,0.416
			c0.208,0.732-0.21,0.083-0.394,0.199c-0.326,0.046-0.13-0.43-0.511-0.383c-0.15,0.023-0.107-0.487-0.615-0.186
			c-0.233,0.232-0.453-0.464-0.824,0.013c-0.141,0.383-0.338-0.221-0.882,0.232c-0.338,0.324-0.405-0.327-0.673-0.07
			c-0.221,0.209-0.245-0.151-0.615,0.232c-0.152,0.162-0.478,0.116-0.85,0.464c-0.033,0.232-0.064,0.054-0.104,0.292
			c0.28,0.695-0.209,0.486-0.836,0.394c-0.208,0.371-0.358-0.117-0.65,0.394c-0.346,0.255-0.301-0.766-0.95-0.511
			c-0.349,0.349-0.302-0.069-0.72,0.046c-0.255-0.021-0.627-1.624-2.299-1.925c0,0,0,0-0.301,0.232
			c-0.464,0.604-0.742,0.069-1.183,0.557c-0.395,0.417-0.233,0.301-1.254,0.395c-0.929,0.556-0.442-2.461-2.623-1.161
			c-0.535,0.325,0.673,0.951-0.348,0.813c-0.349-0.047-0.163,0.44-1.138,0.371c-0.859-0.464-0.139,0.209-0.323,1.322
			c0,0,1.183,0.349,0.532,0.65c-0.187,0.071,0.324,0.488-0.209,0.464c-0.21,0.023-0.139,0.511-0.439-0.116
			c-0.35,0.023-0.226-0.25-0.65-0.326c-0.232-0.115-0.487,1.115-0.467-0.23c0-0.14-0.209-0.721-0.369-0.163
			c-0.209,0.51-0.674,0.835-1.023-0.464c0.117-0.604-0.439-0.395-0.51-1.208c-1.045-0.3-0.788-1.113-1.462-0.326
			c-0.068,0-0.232,0.303-0.557,0.141c-0.79,0.487-0.929-0.046-1.254,0c-0.185,0.162-1.277-0.234-0.818,0.313
			c0.627,0.227,0.07,1.34-0.103,0.679c0-0.138,0.103-0.679-0.437,0.173c-1.463,0.628-1.654-0.678-2.003-0.696
			c-0.469-0.089-0.086-0.87-0.73,0.348c-0.645,0.592-2.28-0.487-3.48,0.262c-1.533,0.227-1.027-0.366-1.984,1.079
			c-0.453,0.506-0.192-0.191-1.044-0.644c0.051,0.61-0.35,0.872-0.401,0.157c-0.018-0.244-0.279-0.401-0.437,0
			c-0.138,0.435-0.104-0.436-0.661,0.086c-0.608,0.419-0.242,1.341-0.783,1.689c-0.854,0.679,0.557,1.463-0.81,1.393
			c-0.163,0.053-0.391,0.156-0.163,0.278c0.102-0.017,0.311,0.261,0,0.401c-0.279,0.052-0.02,0.854-0.89,0.835
			c-0.522-0.227-0.696,0.47-0.384,0.662c0.14,0.052,0.507,0.292,0.471,0.749c0.017,0.277-0.296,0.243-0.296,0.54
			c-0.139,0.33-0.713-0.193-1.079,0.364c-0.209,0.244,0.209,1.236-0.575,0.732c-0.157-0.104-0.435,0.401-0.765,0.243
			c-0.522-0.312-0.68,0.279-0.662,0.593c-0.452,1.097,0.817,0.903,0.608,1.654c-0.503,0.226,0.419,0.208,0.017,0.886
			c-0.571,1.202,0.68,0.976,0.246,1.272c-0.279,0.609-0.817,0.644,0.661,1.149c0.89,0.243,1.271-1.062,1.549-0.576
			c0.608,1.202,0.748,1.185,0.766,0.261c0.123-0.99,0.123,0.784,0.435,0.819c0.455-0.348,1.026-0.122,1.22-0.087
			c0.488,0.191,0.47-0.714,2.21-1.271c0.818-0.312,0.332,0.191,0.121,0.278c-0.841,0.443-2,0.75-1.148,1.08
			c0.663,0.486,2.228,0.365,0.887,0.609c-0.608-0.035-0.259,0.069-0.608,0.087c-0.313-0.14,0.263,1.358,0.437,2.264
			c0.07,0.278,0.279,0.382,0.036,0.539c-0.124,0.142,0.153,0.332,0.243,0.174c0.328-0.592,0.226,0.174,0.852,0.191
			c1.185,0.365-0.087,0.384-0.592,0.141c-0.105,0.521-0.503,0.938-0.469,1.41c-0.148,0.933,0.19,1.304,0.19,1.304
			c0.228,0.383,1.096-0.068,0.384,0.541c-0.455,0.277,0.469,1.115,0.068,1.409c-0.313,0.052-0.243,0.541-0.541,0.523
			c-0.485,0.26,0.245,0.835-0.503,0.662c-1.254,1.043,0.071,2.14-0.486,2.576c-0.229,0.122-0.262,0.435-0.364,0.435
			c-0.438,0.279,0.799,0.54,0.171,0.941c-0.747,0.626-0.104,1.897-0.504,2.036c-0.61,1.062-0.262,1.514,0.487,2.384
			c0.262-0.748,0.451-0.417,0.488-0.347c0.296,0.261,0.122-0.018,0.47-0.035c0.21,0.097,0.226-0.628,1.133-0.436
			c0.246,0.139,0.485-0.661,0.503-0.017c-0.035,0.4,0.382,0.174,0.227,0.539c0.018,0.314,0.192-0.051,0.33-0.051
			c-0.086-0.453,0.505-0.941,0.818-0.383c0.158,0.331,0.158-0.052,0.627,0.383c0.377,0.219,0.66-0.175,0.957,0.174
			c0.488,0.313,0.54-0.488,0.801-0.035c0.122,0.452,1.166-0.244,1.201,0.208c0.247,0.178,0.383-0.208,0.577,0
			c0.302,0.041,0.259-0.73,0.555-0.245c0.156,0.245,0.191-0.052,0.661,0.036c0.767,0.191,1.271-0.28,1.463-0.104
			c0.222,0.179,0.243-0.192,0.47,0.017c0.305,0.119,0.243-0.4,0.539-0.174c0.278,0.238,0.278-0.174,0.61-0.139
			c0.418-0.053,0.018-0.521,0.174-0.556c0.227-0.07,0.14-0.401,0.453-0.314c0.624-0.124,0.713,0.087,0.765,0.139
			c0.332,0.192-0.502,1.044,0,1.062c1.133,0.244,0.644-1.375,1.22-0.818c1.271,0.992,2.174-0.418,2.159-0.835
			c0.226-0.319-0.018-0.471,0-0.767c0.26-0.452,0.382,0.384,0.469,0.436c0.14,0.696,0.688-0.303,0.87-0.418
			c0.227,0.052,0.541-0.209,1.375-0.104c0.453,0.156,0.453,0.156,0.801-0.244c1.324-0.681,0.572-0.545,0.716-0.959
			c0.103-0.956,0.33,0.104,0.644,0.122c0.695,0.227,1.078,1.062,1.651,0.492c0.541-0.682,0.645-0.038,1.012-0.561
			c0.243-0.331,0.748-0.227,1.078-0.472c1.097,0.907-1.148,0.56,0,0.959c0.435,0.853,1.2,0.209,1.358,0.644
			c0.956,0.123,0.768-0.549,0.939-0.57c0.176-0.053,0.156-0.289,0.246,0c0.062,0.188,0.283,0.095,0,0.397
			c0.067,0.348,0.225-0.104,0.867,0.417c1.603,1.236,2.369-0.748,2.474,0.174c-0.263,0.8,0.644,0.975,1.41,1.219
			c0.731,0.294,0.538-0.455,0.749,0.017c0.103,0.192,0.66-0.541,0.695,0.278c-0.035,0.4,0.732,0.731,1.463,0.801
			c0.713-0.052,0.678-0.645,1.811-0.312c1.078,0.296,1.637,1.149,2.262,1.114c0.592,0.278,0.523,0.557,1.357,0.678
			c0.82,0.419,0.488,1.184,1.236,0.888c0.383,0.139,0.521,0.436,0.645,0.54c0.312,0.261,0.402,0.575,0.696,0.192
			c0.689-0.192,2.454,1.584,3.083,1.758c1.877,1.062,1.635,0.957,1.758,2.071c0.043,0.135,0.225,0.458,0.389,0.273
			c0.207-0.337,0.232,0.231,0.347,0.244c0.44,0.115-0.023,0.463,0.407,0.638c0.207,0.148,0.173,0.638,0.996,0.869
			c0.278,0.094,0.396,0.628,0.58,0.291c0.303-0.383,0.674,0.905,0.977,0.847c0.289,0.046,0.371,0.511,0.882,0.465
			c0.531-0.018,0.916,0.836,1.625,0.766c0.476-0.058,0.929,1.125,1.448,0.953c0.628-0.15,0.838,0.625,1.453,0.602
			c0.963,0.047,0.952-0.277,0.952-0.707c0.069-0.627,0.579,0.336,0.173,0.604c-0.162,0.894,0.674,0.696,0.709,0.801
			c0.186,0.18,0.463,0.074,0.984,0.527c0.559,0.453,0.628-0.348,0.646-0.4c0.066-0.538,0.539,0.141,0.104,0.539
			c-0.104,0.592,0.436,0.141,0.539,0.471c0.088,0.227,0.228-0.104,0.975,0.783c0.609,0.557,0.94,0.331,1.115,0.609
			c0.07,0.418,0.416,0.174,0.416,0.487c0.052,0.314,0.42,0.192,0.748,0.593c0.472,0.418,0.454,0.034,0.489-0.244
			c0.037-0.975,0.295,0.403,0.365,0.429c0.052,0.233,0.643,0.233,0.486,0.633c0.105,0.558,0.663,0.175,0.61,0.575
			c-0.069,0.418,0.783-0.123,0.783,0.348c0.141,0.33,0.783,1.027,1.168,1.045c0.295,0.156,1.162,0.644,1.443,0.852
			c0.524,0.611,0.645,0.228,0.853,0.523c0.278,0.33,0.228-0.505,0.523,0c0.278,0.312,0.418,0.436,0.418,0.436
			c0.312-0.314,0.485-0.68,0.505-0.279c-0.681,0.853,1.236,0.33,0.225,1.167c-0.133,0.284,0.471,0.62,0.669,0.528
			c0.441,0.033-0.163-0.779,0.3-0.848c0.188,0.023,0.255-0.221,0.674,0.012c0.14,0.243,0.582,0.047,0.661,0.254
			c0.187,0.326,0.245-0.034,0.269-0.115c0.013-0.58,0.267,0.209,0.323,0.303c0.118,0.232,0.383,0.128,0.649,0.464
			c0.663,0.429,0.083,0.661,0.166,0.72c0.043,0.244,0.485,0.161,0.578,0c0.326-0.5,0.162,0.08,0.568,0.068
			c0.384,0.151,0.083,0.616,0.454,0.58c0.335,0.036,0,0.302,0.438,0.385c0.547,0.092,0.432,0.928,0.547,0.788
			c0.209-0.115,0.267,0.257,0.439,0.175c0.198,0.045-0.348-0.918,0.188-0.615c0.418-0.221,0.531,0.209,0.649,0.104
			c0.268-0.371,0.661,0.383,0.848,0.303c0.383-0.151,1.102,0.533,1.438,0.395c0.508,0,0.703,0.164,0.975,0.174
			c0.5-0.162,0.465,0,0.359,0.104c-0.567,0.314,1.174,0.593,1.823,0.512c0.532-0.047,1.462-0.478,1.566-0.639
			c-0.429-0.986,0.976-0.696,1.253-0.835c0.14-0.128,0.116-0.674,1.022-1.358c0.312-0.244,0.591-0.72,0.557-0.893
			c0.055-0.369,0.021-0.5-0.105-0.383c-0.267,0.104-0.14-0.198-0.14-0.371c-0.254-0.385-0.533-0.559-0.022-0.432
			c0.279,0.338,0.429-0.035,0.581-0.15c0.104-0.162,0.046-0.43,0.242-0.626c0.141-0.372,0.42-0.163,0.615-0.094
			c0.523,0.243,0.07-0.372,0.187-0.661c0.085-0.355-0.359-0.012-0.466-1.008c-0.637-0.699,0.396-0.616,0.314-1.093
			c-0.045-0.313,0.175-0.544,0.175-0.812c0.243-0.918,0.987-0.279,0.929-0.674c-0.013-0.398-0.28-0.348-0.188-0.73
			c-0.057-0.324-0.463-0.014-0.22-0.545c0.131-0.121-0.336-0.186,0.117-0.534c0.186-0.29-0.523-0.478-0.325-1.126
			c0.069-0.186-0.151-0.162-0.07-0.592c-0.063-0.102-0.511,0-0.648-0.094c-0.731,0.418-0.709-0.034-0.291-0.047
			c0.229-0.058,0.301-0.207,0.847-0.034c0.423,0.034,0.498-0.093,0.51-0.29c-0.277-0.324-0.451-0.72-0.51-0.858
			c-0.14-0.243-0.325-0.22-0.347-0.587c0.008-0.175-0.326-0.202-0.454-0.666c-0.092-0.314-0.394-0.278-0.546-0.395
			c-0.23,0.127-0.695,0.244-0.416-0.105c0.218-0.277,0.218-0.476-0.164-0.441c-0.383,0.059-0.383-0.429-0.058-0.359
			c0.348-0.011-0.173-0.395-0.232-0.611c-0.208-0.248-0.976,0.321-0.73-0.051c0.28-0.208-0.081-0.44-0.278-0.417
			c-0.361-0.013-0.222,0.185-0.615-0.07c-0.208-0.221-0.222,0.034-0.638-0.383c-0.046-0.106-0.558,0.081-0.57-0.257
			c-0.104-0.256-0.465,0.117-0.521,0.303c-0.243,0.394-0.29,0.058-0.209-0.417c0.163-0.372,0.071-0.701-0.059-0.929
			c-0.243-0.268-0.961,0.335-1.091,0.278c-0.421,0.001-0.66-0.395-0.986-0.325c-0.277,0.151-0.696-0.325-0.756-0.348
			c-0.938-0.348-0.867-1.613-0.392-0.917c0.185,0.279,0.243,0.396,0.903,0.336c0.629,0.116,1.312,0.22,1.277,0.441
			c-0.023,0.303,0.359,0.198,0.198-0.01c-0.163-0.396,0.451-0.117,0.569-0.152c0.33-0.012,0.544,0.325,0.799,0.174
			c-0.151-0.731,0.081-0.394,0.199-0.244c0.229,0.183,0.301,0.568,0.72,0.395c0.322-0.163,0.229,0.383,0.44,0.232
			c0.369-0.268,0.521,0.406,0.73,0.326c0.673,0.543,0.871,0.37,1.149-0.106c0.254-0.557,0.545,0.208,0.288,0.348
			c-0.393,0.326,0.535,0.209,0.094,0.638c-0.128,0.453,0.823,0.314,0.719,0.453c-0.08,0.233,0.408,0.324,0.663,0.534
			c0.545,0.383,1.074,0.604,1.095,0.719c0.46,0.336-0.411,0.776-0.388,0.927c0.431,0.453,0.067,0.479,0.267,0.838
			c0.268,0.51,0.453,0.59,0.547,0.184c0.255-0.754,0.557,0.14,0.73,0.076c0.342-0.046,0.475-0.725,0.996-0.645
			c0.513,0.152,0.407-0.324,0.697-0.346c0.363,0.004,0.465-0.164,0.488-0.35c-0.409-0.417-1.658-0.882-1.985-0.755
			c-0.545,0.337-0.324-0.452-0.567-0.382c-0.43,0.163-0.812,0.232-0.51-0.209c0.08-0.185-0.362-0.197,0.172-0.79
			c0.06-0.359-0.546-0.255-0.162-0.614c0.141-0.244-0.36-0.128-0.337-0.673c0.035-0.429-0.766-0.347-0.396-1.092
			c0.142-0.555-0.206-0.521,0.118-0.788c0.255-0.278-0.116-0.303-0.208-0.082c-0.173,0.232-0.232,0.198-0.431,0.104
			c-0.335,0.023-0.301,0.117-0.799,0.152c-0.568,0.116-0.059-0.522-0.615-0.801c-0.417-0.348-1.057-0.777-0.476-1.114
			c0.207-0.128-0.397-0.674-0.245-0.998c0-0.594-0.904-0.406-1.021-0.594c-0.093-0.463-0.788,0.094-0.429-0.394
			c0.15-0.197-0.07-0.859,0.51-0.789c0.209,0.116,0.221-0.488-0.164-0.476c-0.557,0.116-0.499-0.267-0.346-0.708
			c0.069-0.442-0.522-0.639-0.278-0.837c0.196-0.371-0.337-0.067-0.487-0.266c-0.047-0.37-0.338-0.731-0.373-0.963
			c-0.15-0.278-0.441,0.023-0.533-0.301c-0.22-0.314-0.337-0.058-0.418-0.325c-0.125-0.239-0.579-0.069-0.232-0.848
			c0-0.325-0.578-0.313,0.348-1.091c0.488-0.093,0.303-0.639,0.639-0.649c0.267-0.221,0.696-0.558,0.537-0.639
			c-0.211-0.348-0.77,0.22-0.828-0.208c0.117-0.337-0.255-0.64,0.104-0.859c-0.14-0.477-0.59-0.604-0.788-0.5
			c-0.533,0.708-0.615-0.219-1.311,0.175c-0.419,0.557-1.081-0.175-0.709-0.534c0.57-0.592,0.976,0.127,1.079-0.429
			c0.047-0.522-0.382-0.453-0.127-0.917c0.15-0.267-0.44-0.685-0.858-0.14c-0.744,0.604-0.176-0.569-0.34-0.534
			c-0.3-0.244,0.363-0.116,0.456-0.233c0.149-0.498-0.767-0.068-0.743-0.428c0.128-0.418-0.697-0.326-0.592,0.034
			c0.058,0.464-0.465-0.115-0.558,0c-0.626-0.034,0.116-0.579-0.104-0.638c-0.336-0.569,0.534-1.033,0.476-1.242
			c-0.22-0.382,0.036-0.394,0.161-0.684c0.314-0.778-0.207-1.196-0.01-1.277c0.256-0.244,0.638,0.057,0.904-0.348
			c0.721-0.407,0.477-0.58,0.15-0.511c-0.693,0.233-0.939,0.349-0.939-0.023c-0.046-0.266-0.615,0.128-0.022-0.638
			c-0.083-0.813-0.231-0.337-0.522-0.533c-0.164-0.384-0.487-0.058-0.439-0.559c0.242-0.533-0.187-0.834,0.092-0.963
			c0.277-0.091,0.348-0.476,0.754-0.522c0.287,0.01,0.279-0.336,0.579-0.197c0.279,0.221,0.27-0.15,0.559,0.023
			C561.483,40.607,561.667,40.404,561.667,40.404z"/>
		<path fill="none" stroke="#000000" stroke-width="0.25" stroke-miterlimit="10" d="M568.142,68.899
			c0.197,0.053,0.835,0.054,1.034,0.669c0.068,0.256,0.288,0.964,0.335,1.474c0,0.209,0.058,0.567-0.14,0.384
			c-0.256-0.65-0.492-0.487-0.498-0.686c-0.071-0.291-0.465-0.407-0.441-0.859c0.139-0.302-0.835-1.055-0.533-0.974L568.142,68.899z
			"/>
		<path fill="none" stroke="#000000" stroke-width="0.25" stroke-miterlimit="10" d="M562.827,50.373
			c1.681,0.244,1.161-0.581,1.578-0.743c0.138-0.151,0.277-0.452,0.057-0.406c-0.255,0.046-0.255-0.209-0.406-0.116
			c-0.578,0.174-0.384-0.753-0.545-0.708c-0.278-0.162-0.129-0.696-0.255-0.59c-0.338,0.3-0.776,0.73-0.547,0.741
			c0.244,0.059-0.091,0.349,0.104,0.419c0.279,0.22-0.395,0.557-0.166,0.835C563.152,49.921,562.235,50.362,562.827,50.373z"/>
		<path fill="none" stroke="#000000" stroke-width="0.25" stroke-miterlimit="10" d="M550.277,35.494c0,0-0.332,0.575-0.105,0.645
			c0.4,0.07,0.068-0.504,0.4-0.47c0.221,0.05,0.174-0.243,0.313-0.47c0.114-0.162-0.036-0.522-0.245-0.121
			C550.468,35.251,550.277,35.494,550.277,35.494z"/>
		<path fill="none" stroke="#000000" stroke-width="0.25" stroke-miterlimit="10" d="M550.204,34.434
			c0.506,0.208-0.029,0.406,0.14,0.592c0.171,0.184-0.261,0.174-0.329-0.13C549.965,34.715,550.204,34.434,550.204,34.434z"/>
		<path fill="none" stroke="#000000" stroke-width="0.25" stroke-miterlimit="10" d="M524.23,17.512
			c0.213,0.227,0.299,0.4,0.665,0.245c0.14-0.453-0.087-0.558-0.122-0.766C524.6,16.887,524.23,17.512,524.23,17.512z"/>
		<path fill="none" stroke="#000000" stroke-width="0.25" stroke-miterlimit="10" d="M565.735,88.38
			c-0.664-0.174-0.315,0.263,0,0.331c0.591,0.4,0.432-0.244,1.095,0.088c0.959,0.243,1.567-0.273,1.096-0.459
			c-0.833-0.83-0.978-0.047-1.202-0.43C566.483,87.578,566.596,88.713,565.735,88.38z"/>
	</g>
	<g>
		<path fill="#1D1D1B" d="M492.889,98.614c-0.058-1.091-0.128-2.406-0.115-3.383h-0.034c-0.27,0.918-0.596,1.896-0.99,2.976
			l-1.384,3.802h-0.768l-1.268-3.731c-0.371-1.104-0.687-2.115-0.906-3.046h-0.022c-0.024,0.977-0.083,2.292-0.152,3.464
			l-0.209,3.36h-0.965l0.546-7.837h1.29l1.34,3.792c0.323,0.964,0.592,1.825,0.789,2.639h0.033c0.198-0.79,0.479-1.651,0.826-2.639
			l1.396-3.792h1.29l0.488,7.837h-0.987L492.889,98.614z"/>
		<path fill="#1D1D1B" d="M499.685,98.383h-3.046v2.824h3.396v0.849h-4.409v-7.837h4.234v0.85h-3.221v2.478h3.046V98.383z"/>
		<path fill="#1D1D1B" d="M501.344,102.056v-7.837h1.104l2.51,3.966c0.584,0.919,1.036,1.743,1.409,2.546l0.023-0.012
			c-0.095-1.045-0.118-1.999-0.118-3.221v-3.279h0.954v7.837h-1.022l-2.489-3.976c-0.545-0.871-1.067-1.768-1.465-2.615
			l-0.034,0.011c0.058,0.989,0.08,1.931,0.08,3.233v3.347H501.344z"/>
		<path fill="#1D1D1B" d="M515.686,98.057c0,2.697-1.639,4.129-3.638,4.129c-2.069,0-3.523-1.606-3.523-3.979
			c0-2.487,1.547-4.115,3.639-4.115C514.303,94.092,515.686,95.732,515.686,98.057z M509.607,98.185
			c0,1.675,0.906,3.174,2.498,3.174c1.605,0,2.513-1.478,2.513-3.255c0-1.559-0.815-3.186-2.5-3.186
			C510.444,94.918,509.607,96.465,509.607,98.185z"/>
		<path fill="#1D1D1B" d="M516.996,94.326c0.511-0.107,1.243-0.164,1.941-0.164c1.082,0,1.778,0.197,2.267,0.639
			c0.396,0.35,0.616,0.885,0.616,1.488c0,1.035-0.649,1.722-1.477,2v0.035c0.605,0.21,0.965,0.768,1.152,1.582
			c0.255,1.092,0.44,1.848,0.603,2.149h-1.045c-0.128-0.22-0.303-0.896-0.524-1.871c-0.232-1.081-0.649-1.489-1.569-1.522h-0.952
			v3.394h-1.012V94.326z M518.008,97.895h1.034c1.081,0,1.768-0.594,1.768-1.488c0-1.012-0.732-1.453-1.802-1.465
			c-0.489,0-0.838,0.047-1,0.092V97.895z"/>
		<path fill="#1D1D1B" d="M528.759,101.801c-0.373,0.186-1.117,0.372-2.068,0.372c-2.211,0-3.875-1.396-3.875-3.966
			c0-2.451,1.664-4.115,4.094-4.115c0.978,0,1.594,0.209,1.86,0.35l-0.245,0.826c-0.382-0.188-0.928-0.326-1.58-0.326
			c-1.837,0-3.056,1.175-3.056,3.232c0,1.918,1.103,3.15,3.009,3.15c0.616,0,1.245-0.129,1.65-0.326L528.759,101.801z"/>
		<path fill="#1D1D1B" d="M531.334,99.591l-0.812,2.465h-1.046l2.662-7.837h1.221l2.675,7.837h-1.082l-0.838-2.465H531.334z
			 M533.904,98.801l-0.766-2.256c-0.176-0.512-0.291-0.977-0.407-1.43h-0.023c-0.116,0.465-0.244,0.941-0.395,1.419l-0.768,2.267
			H533.904z"/>
	</g>
</g>
</svg>
